<?xml version="1.0" encoding="UTF-8"?>
<svg version="1.1" xmlns="http://www.w3.org/2000/svg" width="512" height="512">
<path d="M0 0 C12.39345956 10.18580627 21.36838117 23.65100428 23.4375 39.8125 C24.28483838 51.20103872 23.46157663 61.7782204 20.4375 72.8125 C21.36308716 73.05987915 21.36308716 73.05987915 22.30737305 73.31225586 C37.26171521 77.36005811 51.37308844 82.31081732 65.4375 88.8125 C65.46328125 87.94109375 65.4890625 87.0696875 65.515625 86.171875 C66.25863333 70.56869999 70.45683931 60.40694589 81.625 49.5625 C90.59375688 41.85521492 101.34742848 39.41763502 112.890625 39.53515625 C122.54125139 40.28977571 130.94784731 43.75295815 138.4375 49.8125 C139.05109375 50.29074219 139.6646875 50.76898438 140.296875 51.26171875 C146.74764417 56.92754919 151.67469437 66.39522865 153.4375 74.8125 C154.31496329 89.32660591 153.01047342 101.19274384 143.4375 112.8125 C137.83179595 118.76250832 131.85876515 122.50561501 124.4375 125.8125 C123.10099433 126.47278389 121.76654832 127.13733129 120.4375 127.8125 C121.38625 128.699375 122.335 129.58625 123.3125 130.5 C145.75659634 153.03477956 159.2341881 184.42004333 162.4375 215.8125 C165.06288284 215.67196128 167.68767427 215.52531053 170.3125 215.375 C171.05886719 215.33568359 171.80523437 215.29636719 172.57421875 215.25585938 C176.63736864 215.09676376 176.63736864 215.09676376 180.4375 213.8125 C180.14875 213.12285156 179.86 212.43320312 179.5625 211.72265625 C175.9957156 202.69423323 175.18238847 195.60959672 178.26953125 186.3046875 C181.46968553 179.47626466 186.73901585 174.52091441 193.578125 171.46875 C201.89877503 168.53204999 209.74349269 169.22848648 217.88671875 172.4765625 C223.82375634 175.58600638 228.90658381 181.0557247 230.984375 187.51171875 C232.66555317 196.04804583 232.50253407 205.04939864 228.0703125 212.66015625 C225.31246481 216.29550093 221.9988947 219.00361757 218.4375 221.8125 C217.42282143 222.79760274 216.41752126 223.79291267 215.4375 224.8125 C216.52998047 225.20115234 216.52998047 225.20115234 217.64453125 225.59765625 C220.52979859 226.85264666 222.66105285 228.30477857 225.125 230.25 C225.89199219 230.84683594 226.65898437 231.44367188 227.44921875 232.05859375 C230.14664089 234.43804864 231.35769232 236.07826932 231.75 239.6875 C231.39927136 243.19478638 230.5244662 245.00312242 228.4375 247.8125 C225.08753251 249.48748375 222.03195933 249.51385792 218.4375 248.8125 C211.52107159 245.43159312 205.56058757 240.47746918 199.7265625 235.51171875 C195.84806035 232.63262586 193.1933486 231.53895482 188.3984375 232.23828125 C186.86737644 232.52107704 185.33873851 232.81723801 183.8125 233.125 C182.20763417 233.42382924 180.6021601 233.71941044 178.99609375 234.01171875 C178.21862793 234.15399902 177.44116211 234.2962793 176.64013672 234.44287109 C172.88102177 235.07369575 169.10910097 235.3586077 165.30859375 235.6015625 C163.42518874 235.61699726 163.42518874 235.61699726 162.4375 236.8125 C162.14087393 238.75230644 161.85030521 240.69322379 161.58959961 242.63818359 C158.34533561 266.3952455 149.98889522 289.56431781 135.4375 308.8125 C134.77621094 309.69421875 134.11492187 310.5759375 133.43359375 311.484375 C126.66763373 320.10692441 118.62742414 329.6858839 109.4375 335.8125 C108.77920797 338.56635782 108.77920797 338.56635782 108.57788086 341.86352539 C108.40771706 343.77174828 108.40771706 343.77174828 108.2341156 345.71852112 C108.1234177 347.11572433 108.01282989 348.51293627 107.90234375 349.91015625 C107.77829079 351.34317415 107.65282758 352.77607061 107.52601624 354.20884705 C107.19433794 357.99054105 106.878389 361.77337368 106.56671143 365.5567627 C106.06799498 371.58740521 105.54859202 377.61625336 105.02353096 383.64465141 C104.84366733 385.74060009 104.67227544 387.83711166 104.50193787 389.93385315 C102.97265995 407.87932175 102.97265995 407.87932175 99.68661499 412.01733398 C96.98510491 414.17358616 95.70816275 414.3223956 92.28930664 414.34594727 C91.26466812 414.3617836 90.2400296 414.37761993 89.18434143 414.39393616 C87.53268227 414.38649635 87.53268227 414.38649635 85.84765625 414.37890625 C84.14264198 414.38820412 84.14264198 414.38820412 82.40318298 414.39768982 C79.99999854 414.40479187 77.59676494 414.40160736 75.19360352 414.38891602 C71.51681886 414.37506337 67.84258478 414.40910395 64.16601562 414.44726562 C61.83072854 414.44821693 59.49543828 414.44635741 57.16015625 414.44140625 C56.06107437 414.45466446 54.96199249 414.46792267 53.8296051 414.48158264 C49.08682966 414.42374817 46.2784968 414.35649336 42.23535156 411.74121094 C39.94632768 408.01237735 39.86233689 405.68568837 39.94921875 401.32421875 C39.95629349 400.62102005 39.96336823 399.91782135 39.97065735 399.1933136 C39.99850788 396.96109773 40.0612168 394.73144923 40.125 392.5 C40.15009549 390.98115619 40.17290648 389.4622728 40.19335938 387.94335938 C40.24829993 384.23224752 40.33450261 380.52262459 40.4375 376.8125 C39.87168213 376.97331055 39.30586426 377.13412109 38.72290039 377.29980469 C27.31974921 380.50205165 15.95543959 383.2723277 4.25 385.125 C3.24912354 385.28387695 2.24824707 385.44275391 1.21704102 385.60644531 C-11.40534385 387.50926486 -23.94123734 388.04958262 -36.6875 388.0625 C-37.47330444 388.06383942 -38.25910889 388.06517883 -39.06872559 388.06655884 C-58.84841555 388.05929757 -78.21133028 385.93412376 -97.5625 381.8125 C-97.53893433 382.90921021 -97.53893433 382.90921021 -97.51489258 384.02807617 C-97.45239649 387.3519716 -97.41346248 390.6757432 -97.375 394 C-97.34986328 395.15048828 -97.32472656 396.30097656 -97.29882812 397.48632812 C-97.28432617 399.15405273 -97.28432617 399.15405273 -97.26953125 400.85546875 C-97.24596558 402.38723755 -97.24596558 402.38723755 -97.22192383 403.94995117 C-97.62045066 407.29957631 -98.56420773 409.11566765 -100.5625 411.8125 C-103.80951668 413.97717779 -104.74900737 414.07064232 -108.50537109 414.10302734 C-109.51006439 414.11578705 -110.51475769 414.12854675 -111.54989624 414.14169312 C-112.63428986 414.14391876 -113.71868347 414.14614441 -114.8359375 414.1484375 C-115.95183258 414.1550943 -117.06772766 414.1617511 -118.21743774 414.16860962 C-120.57951202 414.1787409 -122.94161495 414.18342649 -125.30371094 414.18310547 C-128.91649624 414.1874746 -132.52805625 414.22377988 -136.140625 414.26171875 C-138.43489165 414.26758757 -140.72916411 414.27155652 -143.0234375 414.2734375 C-144.64395523 414.29499405 -144.64395523 414.29499405 -146.29721069 414.31698608 C-150.77223621 414.28974963 -153.7363124 414.2652644 -157.70727539 412.08911133 C-162.85278201 405.7748793 -161.75789071 395.32414902 -162.24609375 387.48046875 C-162.43519755 384.6269262 -162.6258074 381.77349446 -162.81811523 378.92016602 C-162.93986928 376.96540065 -163.04488363 375.00952416 -163.13354492 373.05297852 C-163.22752474 361.78093528 -163.22752474 361.78093528 -167.96313477 352.0859375 C-170.76818273 350.30957354 -173.48190508 349.03435672 -176.5625 347.8125 C-178.42407227 346.61889648 -178.42407227 346.61889648 -179.91015625 345.4765625 C-180.80605469 344.80367188 -181.70195312 344.13078125 -182.625 343.4375 C-188.21653518 339.16668687 -193.46433941 334.65908228 -198.5625 329.8125 C-199.09633301 329.31121582 -199.63016602 328.80993164 -200.18017578 328.29345703 C-210.58267673 318.47229822 -219.11541673 308.06229203 -226.62890625 295.88671875 C-227.14952637 295.04455811 -227.67014648 294.20239746 -228.20654297 293.3347168 C-229.20336331 291.70577802 -230.18652766 290.06836696 -231.15283203 288.42114258 C-236.3172562 279.89086346 -242.91544379 273.80214395 -252.5625 270.8125 C-256.12853724 270.07772486 -259.69365041 269.63459956 -263.3125 269.25 C-275.44359756 267.93140244 -275.44359756 267.93140244 -280.5625 262.8125 C-280.82992554 259.86550903 -280.82992554 259.86550903 -280.85302734 256.03955078 C-280.85974457 255.34342682 -280.86646179 254.64730286 -280.87338257 253.93008423 C-280.89242236 251.62258823 -280.89628986 249.31538222 -280.8984375 247.0078125 C-280.90486183 245.40599446 -280.91158991 243.80417761 -280.91860962 242.20236206 C-280.93059771 238.84142334 -280.93428893 235.48058751 -280.93310547 232.11962891 C-280.93290231 227.81291508 -280.96019354 223.50686142 -280.99464989 219.20030403 C-281.01688999 215.89058402 -281.02094389 212.58102351 -281.01988602 209.27123642 C-281.02224676 207.68359987 -281.03109696 206.09595924 -281.04655075 204.50839615 C-281.06615141 202.28654076 -281.06039737 200.06611679 -281.04833984 197.84423828 C-281.05118988 196.58008087 -281.05403992 195.31592346 -281.05697632 194.01345825 C-280.47463947 190.24374095 -279.56690034 189.08386899 -276.5625 186.8125 C-274.0480957 186.0546875 -274.0480957 186.0546875 -271.23828125 185.6875 C-269.69430664 185.46320313 -269.69430664 185.46320313 -268.11914062 185.234375 C-266.51329102 185.02554688 -266.51329102 185.02554688 -264.875 184.8125 C-252.20807835 183.13496776 -242.0298811 180.19671935 -233.94140625 169.7109375 C-231.88801268 166.69218227 -230.01623445 163.58960013 -228.17578125 160.4375 C-221.70626977 149.37729408 -213.73264244 137.07495567 -203.44726562 129.19116211 C-201.02251957 127.19137424 -199.25058657 125.47132386 -197.5625 122.8125 C-197.13067484 118.30111466 -198.14699017 114.25531147 -199.1875 109.875 C-199.57903024 107.96537947 -199.97047929 106.05574 -200.3584137 104.14538574 C-200.77739085 102.11424149 -201.21638886 100.08819445 -201.65869141 98.06201172 C-203.08744538 91.44414939 -204.27384017 84.78044432 -205.47698975 78.11862183 C-205.8682773 75.97434084 -206.27262548 73.83289337 -206.68017578 71.69165039 C-206.92887986 70.35956929 -207.17742288 69.0274581 -207.42578125 67.6953125 C-207.64532471 66.53402832 -207.86486816 65.37274414 -208.09106445 64.17626953 C-208.75919519 59.40904772 -209.29514703 55.34439833 -207.1875 50.9375 C-205.5625 48.8125 -205.5625 48.8125 -203.5625 47.8125 C-197.49320279 47.37430245 -194.03490266 48.09986055 -188.58984375 51.07421875 C-187.63411217 51.58778427 -187.63411217 51.58778427 -186.65907288 52.11172485 C-184.59693355 53.22524288 -182.54871424 54.36200121 -180.5 55.5 C-179.07296809 56.27692642 -177.64522639 57.05255047 -176.21679688 57.8269043 C-166.6922047 63.00867201 -157.22264225 68.30014665 -147.82006836 73.69995117 C-145.40847094 75.08478127 -142.98726897 76.45090696 -140.5625 77.8125 C-139.84191406 78.23321777 -139.12132812 78.65393555 -138.37890625 79.08740234 C-135.28443085 80.79916201 -133.28222771 81.82233235 -129.703125 81.7734375 C-125.21250085 80.39944056 -120.7530523 78.96611117 -116.3125 77.4375 C-109.43304586 75.08793245 -102.54089873 72.85178921 -95.5625 70.8125 C-95.79316162 70.08675781 -96.02382324 69.36101562 -96.26147461 68.61328125 C-100.99125672 53.18274552 -99.84956466 36.18105873 -93.0546875 21.5703125 C-84.38863035 5.72956617 -71.7213467 -4.75386521 -54.5625 -10.1875 C-53.80453125 -10.43371094 -53.0465625 -10.67992188 -52.265625 -10.93359375 C-34.55254056 -15.76140812 -14.52703386 -10.63318973 0 0 Z M197.4375 190.8125 C194.95694206 194.53333691 194.65155148 197.50122898 195.4375 201.8125 C196.83896562 204.68867857 198.52879226 207.24937818 200.4375 209.8125 C207.11834291 206.9828496 207.11834291 206.9828496 212.5625 202.375 C213.65166479 199.18530313 213.99521792 197.1588075 213.4375 193.8125 C211.34256947 191.19383684 209.52527473 189.39264652 206.5625 187.8125 C203.06362163 187.8125 200.49886916 189.2251234 197.4375 190.8125 Z " fill="#FB7B76" transform="translate(280.5625,94.1875)"/>
<path d="M0 0 C12.39056845 10.18343016 21.37333777 23.65252723 23.4375 39.8125 C24.87497914 59.42288056 20.76285579 74.81325054 8.125 90.0625 C2.55525362 95.76177536 2.55525362 95.76177536 -0.97265625 95.921875 C-2.28556641 95.74398437 -2.28556641 95.74398437 -3.625 95.5625 C-4.48222656 95.45421875 -5.33945312 95.3459375 -6.22265625 95.234375 C-8.02042717 95.00728815 -9.81808404 94.77924094 -11.61499023 94.54541016 C-20.89716953 93.51395402 -30.21809279 93.66189032 -39.54418945 93.68212891 C-42.51714066 93.68753115 -45.48994375 93.68213631 -48.46289062 93.67578125 C-50.35937533 93.67644133 -52.25585995 93.67772104 -54.15234375 93.6796875 C-55.03776352 93.67766327 -55.92318329 93.67563904 -56.83543396 93.67355347 C-58.07306236 93.67828171 -58.07306236 93.67828171 -59.33569336 93.68310547 C-60.05752304 93.68390106 -60.77935272 93.68469666 -61.52305603 93.68551636 C-63.64729339 93.81777956 -65.51132382 94.26130003 -67.5625 94.8125 C-69.20357372 94.97527317 -70.8515798 95.07674117 -72.5 95.125 C-73.33402344 95.16238281 -74.16804688 95.19976562 -75.02734375 95.23828125 C-79.66499026 94.4593853 -82.01750816 91.50120544 -84.84375 87.9296875 C-96.16179997 71.39098772 -101.58683339 55.93657681 -97.91015625 35.66796875 C-93.96707022 19.2356231 -84.35505551 6.15555319 -70.5234375 -3.43359375 C-65.45614537 -6.43519556 -60.16266609 -8.41411407 -54.5625 -10.1875 C-53.80453125 -10.43371094 -53.0465625 -10.67992188 -52.265625 -10.93359375 C-34.55254056 -15.76140812 -14.52703386 -10.63318973 0 0 Z " fill="#F0C319" transform="translate(280.5625,94.1875)"/>
<path d="M0 0 C7.7349012 6.00049298 14.44894612 16.17665875 16 26 C16.97158646 41.0356986 15.05352544 53.13354374 5 65 C-2.9068196 73.57688906 -13.42835565 78.10504243 -25 79 C-38.71775685 79.28825941 -49.98964108 74.60816517 -59.8671875 65.2265625 C-69.60012942 54.99235319 -71.58189385 43.44294266 -71.3359375 29.9140625 C-70.82258555 18.8706316 -65.76103528 9.70509989 -58 2 C-40.7391541 -12.19497629 -18.11282367 -12.99721502 0 0 Z " fill="#F0C418" transform="translate(366,13)"/>
<path d="M0 0 C1.39745367 1.03278966 2.77408766 2.09453746 4.125 3.1875 C4.73859375 3.66574219 5.3521875 4.14398438 5.984375 4.63671875 C12.43514417 10.30254919 17.36219437 19.77022865 19.125 28.1875 C20.00246329 42.70160591 18.69797342 54.56774384 9.125 66.1875 C1.78460818 73.97874122 -7.27004952 80.06787058 -18.21875 80.4609375 C-32.1771114 80.84912219 -43.24386537 78.95485494 -53.875 69.1875 C-62.1546114 61.13618671 -67.16850236 52.0986305 -68.2109375 40.42578125 C-68.35701005 25.74548958 -65.0280435 15.84226926 -54.84375 5.03125 C-40.09676802 -9.28828323 -17.25987828 -10.91175356 0 0 Z " fill="#F0C319" transform="translate(414.875,140.8125)"/>
<path d="M0 0 C4.6041129 3.7256135 6.60399941 7.80554096 8.828125 13.12109375 C9.17495834 13.92169724 9.52179169 14.72230072 9.87913513 15.54716492 C11.01396785 18.1726097 12.13223228 20.80474992 13.25 23.4375 C14.84061929 27.14384009 16.43802256 30.84724462 18.03515625 34.55078125 C18.44115555 35.49560364 18.84715485 36.44042603 19.26545715 37.41387939 C22.08667103 43.95769185 25.00937577 50.44820086 27.99609375 56.91796875 C28.79212643 58.65236353 29.58802734 60.38681878 30.38378906 62.12133789 C31.52563582 64.6087351 32.67247707 67.09305653 33.83728027 69.5697937 C34.9109082 71.85484059 35.96313677 74.14868905 37.01171875 76.4453125 C37.33160263 77.11028244 37.65148651 77.77525238 37.98106384 78.46037292 C40.03228976 83.02251748 40.25152192 86.16681753 39 91 C36.40320527 93.89357127 34.83460553 94.86089908 31 95.5 C27.07539292 94.84589882 25.83864242 93.82591308 23 91 C21.12888919 87.73638343 19.65782109 84.33429121 18.1875 80.875 C17.78080078 79.95589844 17.37410156 79.03679687 16.95507812 78.08984375 C14 71.32544643 14 71.32544643 14 69 C-3.325 69.495 -3.325 69.495 -21 70 C-24.12311787 77.09974663 -24.12311787 77.09974663 -27.22167969 84.21020508 C-27.61774414 85.09603271 -28.01380859 85.98186035 -28.421875 86.89453125 C-28.81987305 87.80050049 -29.21787109 88.70646973 -29.62792969 89.63989258 C-31.14257965 92.24525223 -32.41231654 93.4804882 -35 95 C-38.5 95.4375 -38.5 95.4375 -42 95 C-44.36497439 93.13291495 -45.66030715 91.67938569 -47 89 C-47.57321607 83.50633813 -45.90189355 79.77458001 -43.625 74.9296875 C-43.26858429 74.14722656 -42.91216858 73.36476563 -42.54495239 72.55859375 C-41.3735841 69.99254431 -40.18689248 67.43390099 -39 64.875 C-37.76780747 62.18789976 -36.53930192 59.49913228 -35.31082153 56.81033325 C-34.46898425 54.96878735 -33.62576888 53.12787082 -32.78121948 51.28756714 C-29.92992866 45.06817666 -27.13550013 38.82611544 -24.3828125 32.5625 C-24.02016296 31.73855743 -23.65751343 30.91461487 -23.28387451 30.06570435 C-21.89026072 26.89754935 -20.49751658 23.72905857 -19.11376953 20.55657959 C-18.16677579 18.38705072 -17.21293078 16.22064917 -16.2578125 14.0546875 C-15.98558868 13.4251416 -15.71336487 12.7955957 -15.43289185 12.14697266 C-11.80583146 3.960525 -9.53430908 -0.96959075 0 0 Z " fill="#FEFDFD" transform="translate(238,265)"/>
<path d="M0 0 C4.11318883 2.77110638 6.49755432 5.88037137 9.13671875 10.04296875 C9.50223343 10.61203445 9.86774811 11.18110016 10.24433899 11.76741028 C11.4002378 13.56903739 12.54463507 15.37758203 13.6875 17.1875 C14.84239539 19.00721134 15.99974057 20.82521717 17.16279602 22.63972473 C18.21158285 24.27719176 19.25188397 25.9200846 20.29174805 27.56323242 C21.77030762 30.08335145 21.77030762 30.08335145 24 31 C24.25595947 30.29190186 24.51191895 29.58380371 24.77563477 28.85424805 C27.10034446 23.43486998 30.66473011 18.69718821 33.9375 13.8125 C34.6741167 12.6961539 35.4104476 11.57961916 36.14648438 10.46289062 C36.84966797 9.40908203 37.55285156 8.35527344 38.27734375 7.26953125 C38.91921631 6.30635986 39.56108887 5.34318848 40.22241211 4.35083008 C42 2 42 2 45 0 C49.00550187 -0.44505576 51.32791631 -0.34319167 54.9375 1.5 C57.30832807 4.37373099 57.48694878 6.11426033 57.38134766 9.78369141 C56.6679627 13.92972769 54.33223618 17.03486717 51.96875 20.4375 C51.45824097 21.20304199 50.94773193 21.96858398 50.42175293 22.75732422 C48.79814591 25.18349208 47.14975643 27.59155781 45.5 30 C44.39024246 31.64860683 43.28215067 33.29833626 42.17578125 34.94921875 C39.46962854 38.97939498 36.7411288 42.99353978 34 47 C37.60303356 52.77183604 41.28618818 58.46479008 45.18359375 64.04296875 C45.88291016 65.05423828 46.58222656 66.06550781 47.30273438 67.10742188 C48.74029905 69.18156597 50.1911323 71.24656918 51.65429688 73.30273438 C58.236709 82.90899969 58.236709 82.90899969 57 90 C54.48271294 93.66150844 52.94189689 94.77324704 48.625 95.8125 C40.1846436 93.92069598 35.05315509 82.94889493 30.5625 76.125 C29.92634766 75.17625 29.29019531 74.2275 28.63476562 73.25 C24 66.26051457 24 66.26051457 24 64 C20.50665238 67.3206827 17.73228024 70.62397963 15.1171875 74.66796875 C14.07884766 76.25448242 14.07884766 76.25448242 13.01953125 77.87304688 C12.31183594 78.96681641 11.60414063 80.06058594 10.875 81.1875 C9.46112917 83.37199412 8.04209465 85.55315736 6.6171875 87.73046875 C5.99440918 88.69364014 5.37163086 89.65681152 4.72998047 90.64916992 C3 93 3 93 0 95 C-3.375 95.5 -3.375 95.5 -7 95 C-10.07500377 92.25212429 -11.77063793 90.39929715 -12.44555664 86.28173828 C-11.81786298 81.65847351 -9.62821833 78.84423109 -6.93359375 75.1171875 C-6.16427269 74.01215378 -6.16427269 74.01215378 -5.37940979 72.88479614 C-3.74519766 70.53868558 -2.09355021 68.20573734 -0.4375 65.875 C1.74512846 62.7990328 3.91035266 59.71181841 6.06640625 56.6171875 C6.57466446 55.91294647 7.08292267 55.20870544 7.60658264 54.48312378 C8.06713547 53.82208649 8.52768829 53.16104919 9.00219727 52.47998047 C9.41301041 51.9029538 9.82382355 51.32592712 10.24708557 50.73141479 C11.25865048 48.40520297 10.89119709 47.34297952 10 45 C8.4134539 42.4917064 6.79135412 40.06438061 5.08984375 37.63671875 C4.08989028 36.17814863 3.09056057 34.71915071 2.09179688 33.25976562 C0.51625679 30.9707271 -1.06396209 28.68540736 -2.65551758 26.4074707 C-4.19258781 24.20194311 -5.70877918 21.98320648 -7.22265625 19.76171875 C-7.70074234 19.08856125 -8.17882843 18.41540375 -8.67140198 17.72184753 C-11.60923477 13.37286977 -12.72321627 10.41111156 -12 5 C-8.57935012 0.12816532 -5.85570965 -0.94109619 0 0 Z " fill="#FEFDFD" transform="translate(307,265)"/>
<path d="M0 0 C5.3556086 4.11669732 9.67249756 9.2594919 11 16 C11.75934843 25.22065948 11.80761551 33.34450683 6 41 C3.49183057 43.57160562 0.81574452 45.77921405 -2 48 C-3.01467857 48.98510274 -4.01997874 49.98041267 -5 51 C-4.27167969 51.25910156 -3.54335938 51.51820313 -2.79296875 51.78515625 C0.09229859 53.04014666 2.22355285 54.49227857 4.6875 56.4375 C5.45449219 57.03433594 6.22148437 57.63117188 7.01171875 58.24609375 C9.70914089 60.62554864 10.92019232 62.26576932 11.3125 65.875 C10.96177136 69.38228638 10.0869662 71.19062242 8 74 C4.65003251 75.67498375 1.59445933 75.70135792 -2 75 C-8.91642841 71.61909312 -14.87691243 66.66496918 -20.7109375 61.69921875 C-24.57390501 58.83165754 -27.22703655 57.72281393 -32.00390625 58.42578125 C-33.52575512 58.70917955 -35.04526983 59.00533363 -36.5625 59.3125 C-38.16599704 59.60911191 -39.7701737 59.90207263 -41.375 60.19140625 C-42.15875 60.33336426 -42.9425 60.47532227 -43.75 60.62158203 C-48.44646743 61.41146099 -53.23404186 61.96436667 -58 62 C-59 61 -59 61 -59.11352539 59.14233398 C-59.10828857 58.35157471 -59.10305176 57.56081543 -59.09765625 56.74609375 C-59.09443359 55.89208984 -59.09121094 55.03808594 -59.08789062 54.15820312 C-59.07951172 53.26037109 -59.07113281 52.36253906 -59.0625 51.4375 C-59.05798828 50.53580078 -59.05347656 49.63410156 -59.04882812 48.70507812 C-59.03700225 46.46998686 -59.0205222 44.23502563 -59 42 C-58.41484619 42.01160156 -57.82969238 42.02320313 -57.22680664 42.03515625 C-52.82466095 42.08575043 -48.75489833 41.97293484 -44.4375 41 C-43.59058594 40.814375 -42.74367188 40.62875 -41.87109375 40.4375 C-41.25363281 40.293125 -40.63617188 40.14875 -40 40 C-40.28875 39.31035156 -40.5775 38.62070312 -40.875 37.91015625 C-44.4417844 28.88173323 -45.25511153 21.79709672 -42.16796875 12.4921875 C-38.96781447 5.66376466 -33.69848415 0.70841441 -26.859375 -2.34375 C-17.65084962 -5.59381778 -8.61607815 -4.51255548 0 0 Z M-23 17 C-25.48055794 20.72083691 -25.78594852 23.68872898 -25 28 C-23.59853438 30.87617857 -21.90870774 33.43687818 -20 36 C-13.31915709 33.1703496 -13.31915709 33.1703496 -7.875 28.5625 C-6.78583521 25.37280313 -6.44228208 23.3463075 -7 20 C-9.09493053 17.38133684 -10.91222527 15.58014652 -13.875 14 C-17.37387837 14 -19.93863084 15.4126234 -23 17 Z " fill="#CC4A4B" transform="translate(501,268)"/>
<path d="M0 0 C0.74357758 -0.00861557 1.48715515 -0.01723114 2.25326538 -0.02610779 C4.70769202 -0.04878345 7.16097827 -0.04202622 9.61547852 -0.03295898 C11.32414591 -0.0381942 13.0328104 -0.04447031 14.74147034 -0.05174255 C18.32176313 -0.06214989 21.90165856 -0.05758116 25.48193359 -0.04296875 C30.06669255 -0.02578709 34.65019755 -0.04926584 39.23481655 -0.08445835 C42.76337464 -0.10643662 46.29163295 -0.1049898 49.82023811 -0.09669304 C51.51030922 -0.09587361 53.20040235 -0.10273545 54.89040947 -0.11746407 C57.25584444 -0.13491752 59.61902988 -0.120364 61.984375 -0.09765625 C62.68012131 -0.10934845 63.37586761 -0.12104065 64.09269714 -0.13308716 C67.88120178 -0.05921831 69.48365608 0.47570456 72.49501038 2.85023499 C74.55688477 5.53344727 74.55688477 5.53344727 75.11938477 9.09594727 C74.47817287 13.01446438 73.66189257 14.15902953 70.55688477 16.53344727 C67.73864285 17.94256823 65.38437195 17.64528279 62.23657227 17.63110352 C60.97973633 17.62788086 59.72290039 17.6246582 58.42797852 17.62133789 C57.10926758 17.61295898 55.79055664 17.60458008 54.43188477 17.59594727 C53.09204265 17.59093216 51.75219876 17.58636927 50.41235352 17.58227539 C47.1271527 17.57045812 43.84204079 17.55398344 40.55688477 17.53344727 C40.56576721 18.409617 40.57464966 19.28578674 40.58380127 20.18850708 C40.66404399 28.45705694 40.72489833 36.72547549 40.76413345 44.99432564 C40.78498304 49.24516575 40.8132521 53.49568337 40.85864258 57.74633789 C40.90219494 61.85067782 40.92604164 65.9547081 40.93639374 70.05926132 C40.94376834 71.62294258 40.95816943 73.18660744 40.97980499 74.7501564 C41.00896539 76.94537852 41.01283573 79.13933128 41.01098633 81.3347168 C41.01986877 82.5827005 41.02875122 83.8306842 41.03790283 85.1164856 C40.46496833 89.18638517 39.11014343 91.35185254 36.55688477 94.53344727 C33.37809782 96.12284074 31.06120756 95.94921438 27.55688477 95.53344727 C24.1806635 92.31170113 22.75988906 90.69991445 21.95561218 86.07852173 C21.96671524 84.81277313 21.9778183 83.54702454 21.98925781 82.24291992 C21.98852768 81.53978668 21.98779755 80.83665344 21.98704529 80.11221313 C21.99050675 77.80650518 22.02929338 75.50286118 22.06860352 73.19750977 C22.07793692 71.59183862 22.08505054 69.98615316 22.09004211 68.38046265 C22.10907077 64.16823544 22.15813459 59.95687964 22.21356201 55.74499512 C22.26484456 51.44152614 22.28757528 47.13791542 22.31274414 42.83422852 C22.36625854 34.40023628 22.45151973 25.96695038 22.55688477 17.53344727 C21.70457275 17.55963135 20.85226074 17.58581543 19.97412109 17.61279297 C16.7966135 17.69826219 13.61969366 17.76081515 10.44140625 17.80810547 C9.06881375 17.83317344 7.69635375 17.86723809 6.32421875 17.91064453 C4.3463778 17.97162258 2.36754293 17.99705736 0.38891602 18.02172852 C-1.39421997 18.06100464 -1.39421997 18.06100464 -3.21337891 18.10107422 C-7.37278058 17.37005835 -8.8206327 15.76214398 -11.44311523 12.53344727 C-12.35049665 9.50696392 -11.90744656 7.78376657 -11.44311523 4.53344727 C-8.3122298 0.12067864 -5.07281456 -0.04744335 0 0 Z " fill="#FEFCFC" transform="translate(107.443115234375,264.466552734375)"/>
<path d="M0 0 C2.76152488 0.02379356 5.5220882 0.02049939 8.28369141 0.01391602 C28.37603044 0.04567672 58.02997124 0.40224658 74.99853516 12.33618164 C76.60881635 15.55674402 76.5905228 18.85309154 75.99853516 22.33618164 C73.99853516 24.83618164 73.99853516 24.83618164 70.99853516 26.33618164 C64.97580322 26.72868874 60.22628209 25.75941866 54.49853516 24.02368164 C25.84685882 16.05828957 -6.67972089 15.61102199 -35.68896484 21.83618164 C-50.45991977 24.97131458 -50.45991977 24.97131458 -57.00146484 25.33618164 C-60.06396484 23.33618164 -60.06396484 23.33618164 -62.00146484 20.33618164 C-62.64126707 16.35519002 -62.55057309 14.26895253 -60.49755859 10.78149414 C-57.12161006 7.47422688 -54.02316978 6.76897752 -49.50146484 5.71118164 C-48.78087891 5.52040039 -48.06029297 5.32961914 -47.31787109 5.13305664 C-31.70889233 1.23730487 -16.04480995 -0.14726568 0 0 Z " fill="#DF4D60" transform="translate(236.00146484375,186.663818359375)"/>
<path d="M0 0 C2.4375 1.5625 2.4375 1.5625 4 4 C4.60774119 7.31495194 4.84701533 8.86634298 4 12 C2.7129364 13.84780884 2.7129364 13.84780884 1.01049805 15.70166016 C0.37413422 16.39721008 -0.26222961 17.09276001 -0.9178772 17.80938721 C-4.51665503 21.59568106 -8.16437564 25.32709532 -11.85546875 29.0234375 C-12.67952713 29.85082428 -13.50358551 30.67821106 -14.35261536 31.53067017 C-16.08166862 33.26475395 -17.81205002 34.99751437 -19.54370117 36.72900391 C-22.19543036 39.38293695 -24.83903814 42.04478895 -27.48242188 44.70703125 C-29.16878143 46.39632203 -30.85561378 48.08514099 -32.54296875 49.7734375 C-33.33156784 50.56922211 -34.12016693 51.36500671 -34.93266296 52.18490601 C-36.03950188 53.28712997 -36.03950188 53.28712997 -37.16870117 54.41162109 C-37.81377121 55.05811615 -38.45884125 55.70461121 -39.12345886 56.37069702 C-42.32904348 59.15393926 -44.21145329 60.01408119 -48.5 59.9375 C-52 59 -52 59 -54.4375 56.8125 C-56.3802852 53.31548664 -56.84945396 51.93837743 -56 48 C-51.3025581 41.6066471 -45.23802086 36.09158953 -39.63671875 30.50390625 C-38.76352493 29.62975571 -37.89033112 28.75560516 -36.99067688 27.85496521 C-35.15899384 26.02260573 -33.32606365 24.19149216 -31.49194336 22.36157227 C-29.6115357 20.48476598 -27.73253517 18.60669452 -25.85620117 16.72583008 C-23.13986795 14.00334649 -20.42012689 11.28431677 -17.69921875 8.56640625 C-16.43521492 7.29936607 -16.43521492 7.29936607 -15.14567566 6.00672913 C-14.36759048 5.23179611 -13.58950531 4.4568631 -12.7878418 3.65844727 C-11.76028023 2.63207909 -11.76028023 2.63207909 -10.71195984 1.5849762 C-7.14543601 -1.71700277 -4.61313795 -1.03397919 0 0 Z " fill="#F8E9AC" transform="translate(273,118)"/>
<path d="M0 0 C4.36521153 0.94895903 5.95908074 2.10353208 8.50390625 5.76171875 C9.25390625 8.57421875 9.25390625 8.57421875 8.50390625 11.76171875 C6.53954465 14.77892164 4.03487666 17.21480521 1.50390625 19.76171875 C0.33329231 20.9582932 -0.83727692 22.15491139 -2.0078125 23.3515625 C-4.49085668 25.8711692 -6.97784847 28.38655021 -9.484375 30.8828125 C-10.01587158 31.41318115 -10.54736816 31.9435498 -11.0949707 32.48999023 C-13.36535613 34.55070424 -14.69309866 34.78773827 -17.80859375 35.19921875 C-21.49609375 34.76171875 -21.49609375 34.76171875 -24.49609375 32.19921875 C-26.96794822 27.95071888 -26.66581216 26.45676361 -25.49609375 21.76171875 C-23.00704064 18.22193668 -19.97247122 15.29080456 -16.88793945 12.26147461 C-15.43639704 10.8269891 -14.02615598 9.35909392 -12.61523438 7.88476562 C-4.85972068 0.14015216 -4.85972068 0.14015216 0 0 Z " fill="#F8E9AD" transform="translate(234.49609375,108.23828125)"/>
<path d="M0 0 C2.03619136 2.03619136 2.79079187 3.46353942 3.9453125 6.0625 C4.29980469 6.85914063 4.65429688 7.65578125 5.01953125 8.4765625 C5.38433594 9.30929687 5.74914062 10.14203125 6.125 11 C6.68380859 12.24910156 6.68380859 12.24910156 7.25390625 13.5234375 C10 19.73986951 10 19.73986951 10 22 C3.73 22 -2.54 22 -9 22 C-8.30250915 18.51254574 -7.78002884 16.15752525 -6.40625 13.046875 C-6.09816406 12.345625 -5.79007813 11.644375 -5.47265625 10.921875 C-5.15167969 10.20515625 -4.83070313 9.4884375 -4.5 8.75 C-4.01853516 7.65171875 -4.01853516 7.65171875 -3.52734375 6.53125 C-1.14218231 1.14218231 -1.14218231 1.14218231 0 0 Z " fill="#FB827D" transform="translate(234,295)"/>
</svg>
