<?xml version="1.0" encoding="UTF-8"?>
<svg version="1.1" xmlns="http://www.w3.org/2000/svg" width="512" height="512">
<path d="M0 0 C0.85247314 -0.0087616 1.70494629 -0.01752319 2.58325195 -0.02655029 C5.39976981 -0.0485484 8.21471633 -0.0339905 11.03125 -0.01708984 C12.98893536 -0.02045787 14.94661868 -0.02531037 16.90429688 -0.03158569 C21.00671299 -0.03895757 25.10858468 -0.02824129 29.2109375 -0.00488281 C34.47061495 0.02360507 39.72901682 0.0072028 44.98864746 -0.02274513 C49.03102232 -0.04080954 53.07309456 -0.035064 57.11547852 -0.02210617 C59.05477041 -0.01876979 60.99408975 -0.02286738 62.93334961 -0.03450394 C65.64380706 -0.04719861 68.35219668 -0.02785611 71.0625 0 C71.86469971 -0.01012115 72.66689941 -0.02024231 73.4934082 -0.03067017 C77.06692224 0.03740047 79.15733259 0.36337718 82.03216553 2.54377747 C84.20457922 7.04080471 84.05826288 11.01099378 83.98535156 15.94506836 C83.98593567 16.97967697 83.98651978 18.01428558 83.98712158 19.08024597 C83.98433828 22.49475837 83.9532334 25.90839428 83.921875 29.32275391 C83.91441352 31.69214908 83.90872015 34.06155043 83.90472412 36.43095398 C83.88946065 42.66343256 83.85017206 48.89553755 83.8059082 55.12786865 C83.76497126 61.48900295 83.74671643 67.85019769 83.7265625 74.21142578 C83.68367901 86.69010544 83.61541855 99.16850796 83.53125 111.64697266 C84.80766357 111.63126221 86.08407715 111.61555176 87.39916992 111.59936523 C92.14210684 111.54499885 96.8850163 111.51059803 101.62817383 111.48217773 C103.67965326 111.46710643 105.73110056 111.44664584 107.7824707 111.4206543 C110.73396748 111.38419842 113.68503763 111.36722959 116.63671875 111.35400391 C118.00886787 111.33077812 118.00886787 111.33077812 119.40873718 111.30708313 C127.9098912 111.30484458 127.9098912 111.30484458 131.53125 114.64697266 C131.86125 116.29697266 132.19125 117.94697266 132.53125 119.64697266 C138.80125 119.64697266 145.07125 119.64697266 151.53125 119.64697266 C152.19125 117.66697266 152.85125 115.68697266 153.53125 113.64697266 C158.13054478 109.92702387 165.57744783 111.27512195 171.23022461 111.27636719 C173.45829673 111.27199318 175.68438733 111.23564954 177.91210938 111.19775391 C179.33593076 111.19188512 180.75976151 111.18791614 182.18359375 111.18603516 C183.47257568 111.17781738 184.76155762 111.16959961 186.08959961 111.16113281 C190.11847676 111.7298684 191.75258686 112.71252376 194.53125 115.64697266 C195.94432047 119.40778135 195.67898735 123.40362766 195.67651367 127.36547852 C195.68155159 128.52473595 195.68155159 128.52473595 195.68669128 129.70741272 C195.69618024 132.25889702 195.69814328 134.81031557 195.69921875 137.36181641 C195.70243246 139.13774136 195.70579662 140.91366605 195.70930481 142.68959045 C195.71529071 146.41098647 195.71714523 150.13235928 195.71655273 153.85375977 C195.71645107 158.61971794 195.73010974 163.38552727 195.74732494 168.15145016 C195.75844823 171.81890038 195.76047185 175.48631462 195.75994301 179.15377998 C195.76112238 180.91082841 195.76554175 182.66787779 195.77327538 184.42490959 C195.78308307 186.88306971 195.78019433 189.34090684 195.77416992 191.79907227 C195.77978943 192.52287079 195.78540894 193.24666931 195.79119873 193.99240112 C195.76641656 197.9759038 195.4986459 201.14655173 193.53125 204.64697266 C190.66971008 207.22032432 188.85862228 208.02135905 185.02606201 208.00773621 C184.12866302 208.0118602 183.23126404 208.01598419 182.30667114 208.02023315 C181.32987396 208.00944733 180.35307678 207.9986615 179.34667969 207.98754883 C178.3122171 207.98798691 177.27775452 207.98842499 176.21194458 207.98887634 C172.79214617 207.98678606 169.37283779 207.96344312 165.953125 207.93994141 C163.58229846 207.93434632 161.21146845 207.93007581 158.84063721 207.92707825 C152.60000028 207.91562267 146.35957274 207.88614908 140.11901855 207.85296631 C133.75124952 207.82228095 127.38344666 207.80857617 121.015625 207.79345703 C108.52074133 207.76128029 96.02601307 207.71007511 83.53125 207.64697266 C83.54013245 208.96384567 83.54901489 210.28071869 83.5581665 211.63749695 C83.6392174 224.04160204 83.69919878 236.44565347 83.73849869 248.84996319 C83.75938234 255.22731746 83.78771483 261.60445812 83.83300781 267.98168945 C83.87643683 274.13491226 83.90038125 280.28792948 83.91075897 286.44129372 C83.91815555 288.79008026 83.93259914 291.13885542 83.95417023 293.48755455 C83.98316419 296.77491029 83.98720756 300.06141414 83.98535156 303.34887695 C84.00692322 304.80867981 84.00692322 304.80867981 84.02893066 306.29797363 C84.00411905 310.35351342 83.81395055 313.06176548 82.03216553 316.75016785 C78.50626304 319.42436804 75.31658029 319.34761799 71.0625 319.29394531 C69.78379028 319.30708771 69.78379028 319.30708771 68.47924805 319.32049561 C65.66273019 319.34249372 62.84778367 319.32793581 60.03125 319.31103516 C58.07356464 319.31440318 56.11588132 319.31925568 54.15820312 319.32553101 C50.05578701 319.33290289 45.95391532 319.32218661 41.8515625 319.29882812 C36.59188505 319.27034024 31.33348318 319.28674251 26.07385254 319.31669044 C22.03147768 319.33475485 17.98940544 319.32900931 13.94702148 319.31605148 C12.00772959 319.3127151 10.06841025 319.31681269 8.12915039 319.32844925 C5.41869294 319.34114392 2.71030332 319.32180142 0 319.29394531 C-0.80219971 319.30406647 -1.60439941 319.31418762 -2.4309082 319.32461548 C-6.00442224 319.25654484 -8.09483259 318.93056814 -10.96966553 316.75016785 C-13.14207922 312.2531406 -12.99576288 308.28295153 -12.92285156 303.34887695 C-12.92343567 302.31426834 -12.92401978 301.27965973 -12.92462158 300.21369934 C-12.92183828 296.79918694 -12.8907334 293.38555103 -12.859375 289.97119141 C-12.85191352 287.60179623 -12.84622015 285.23239488 -12.84222412 282.86299133 C-12.82696065 276.63051275 -12.78767206 270.39840776 -12.7434082 264.16607666 C-12.70247126 257.80494236 -12.68421643 251.44374762 -12.6640625 245.08251953 C-12.62117901 232.60383988 -12.55291855 220.12543735 -12.46875 207.64697266 C-13.78562302 207.6558551 -15.10249603 207.66473755 -16.45927429 207.67388916 C-28.86337938 207.75494005 -41.26743082 207.81492144 -53.67174053 207.85422134 C-60.0490948 207.87510499 -66.42623547 207.90343749 -72.8034668 207.94873047 C-78.95668961 207.99215949 -85.10970683 208.0161039 -91.26307106 208.02648163 C-93.6118576 208.03387821 -95.96063276 208.0483218 -98.30933189 208.06989288 C-101.59668763 208.09888684 -104.88319148 208.10293021 -108.1706543 208.10107422 C-109.1438562 208.11545532 -110.11705811 208.12983643 -111.11975098 208.14465332 C-115.35116501 208.11876572 -117.82755201 208.01706226 -121.54988098 205.86859131 C-125.18929657 201.65496679 -124.61736042 197.28862387 -124.61401367 191.9284668 C-124.61737228 191.15562851 -124.6207309 190.38279022 -124.62419128 189.58653259 C-124.63368024 187.03504829 -124.63564328 184.48362975 -124.63671875 181.93212891 C-124.63993246 180.15620395 -124.64329662 178.38027926 -124.64680481 176.60435486 C-124.65279071 172.88295884 -124.65464523 169.16158604 -124.65405273 165.44018555 C-124.65395107 160.67422737 -124.66760974 155.90841804 -124.68482494 151.14249516 C-124.69594823 147.47504494 -124.69797185 143.80763069 -124.69744301 140.14016533 C-124.69862238 138.3831169 -124.70304175 136.62606752 -124.71077538 134.86903572 C-124.72058307 132.4108756 -124.71769433 129.95303847 -124.71166992 127.49487305 C-124.71728943 126.77107452 -124.72290894 126.047276 -124.72869873 125.30154419 C-124.70391656 121.31804152 -124.4361459 118.14739359 -122.46875 114.64697266 C-119.60721008 112.07362099 -117.79612228 111.27258626 -113.96356201 111.28620911 C-112.61746353 111.28002312 -112.61746353 111.28002312 -111.24417114 111.27371216 C-109.77897537 111.2898909 -109.77897537 111.2898909 -108.28417969 111.30639648 C-107.2497171 111.3059584 -106.21525452 111.30552032 -105.14944458 111.30506897 C-101.72964617 111.30715925 -98.31033779 111.33050219 -94.890625 111.35400391 C-92.51979846 111.35959899 -90.14896845 111.3638695 -87.77813721 111.36686707 C-81.53750028 111.37832264 -75.29707274 111.40779623 -69.05651855 111.440979 C-62.68874952 111.47166436 -56.32094666 111.48536914 -49.953125 111.50048828 C-37.45824133 111.53266502 -24.96351307 111.5838702 -12.46875 111.64697266 C-12.47763245 110.33009964 -12.48651489 109.01322662 -12.4956665 107.65644836 C-12.5767174 95.25234327 -12.63669878 82.84829184 -12.67599869 70.44398212 C-12.69688234 64.06662786 -12.72521483 57.68948719 -12.77050781 51.31225586 C-12.81393683 45.15903305 -12.83788125 39.00601583 -12.84825897 32.8526516 C-12.85565555 30.50386506 -12.87009914 28.15508989 -12.89167023 25.80639076 C-12.92066419 22.51903503 -12.92470756 19.23253118 -12.92285156 15.94506836 C-12.93723267 14.97186646 -12.95161377 13.99866455 -12.96643066 12.99597168 C-12.94161905 8.94043189 -12.75145055 6.23217983 -10.96966553 2.54377747 C-7.44376304 -0.13042273 -4.25408029 -0.05367268 0 0 Z " fill="#E38FCF" transform="translate(220.46875,96.35302734375)"/>
<path d="M0 0 C0.85247314 -0.0087616 1.70494629 -0.01752319 2.58325195 -0.02655029 C5.39976981 -0.0485484 8.21471633 -0.0339905 11.03125 -0.01708984 C12.98893536 -0.02045787 14.94661868 -0.02531037 16.90429688 -0.03158569 C21.00671299 -0.03895757 25.10858468 -0.02824129 29.2109375 -0.00488281 C34.47061495 0.02360507 39.72901682 0.0072028 44.98864746 -0.02274513 C49.03102232 -0.04080954 53.07309456 -0.035064 57.11547852 -0.02210617 C59.05477041 -0.01876979 60.99408975 -0.02286738 62.93334961 -0.03450394 C65.64380706 -0.04719861 68.35219668 -0.02785611 71.0625 0 C71.86469971 -0.01012115 72.66689941 -0.02024231 73.4934082 -0.03067017 C77.06692224 0.03740047 79.15733259 0.36337718 82.03216553 2.54377747 C84.20457922 7.04080471 84.05826288 11.01099378 83.98535156 15.94506836 C83.98593567 16.97967697 83.98651978 18.01428558 83.98712158 19.08024597 C83.98433828 22.49475837 83.9532334 25.90839428 83.921875 29.32275391 C83.91441352 31.69214908 83.90872015 34.06155043 83.90472412 36.43095398 C83.88946065 42.66343256 83.85017206 48.89553755 83.8059082 55.12786865 C83.76497126 61.48900295 83.74671643 67.85019769 83.7265625 74.21142578 C83.68367901 86.69010544 83.61541855 99.16850796 83.53125 111.64697266 C84.80766357 111.63126221 86.08407715 111.61555176 87.39916992 111.59936523 C92.14210684 111.54499885 96.8850163 111.51059803 101.62817383 111.48217773 C103.67965326 111.46710643 105.73110056 111.44664584 107.7824707 111.4206543 C110.73396748 111.38419842 113.68503763 111.36722959 116.63671875 111.35400391 C118.00886787 111.33077812 118.00886787 111.33077812 119.40873718 111.30708313 C124.21269375 111.30581814 127.72890645 111.343094 131.53125 114.64697266 C132.59375 118.02197266 132.59375 118.02197266 132.53125 121.64697266 C130.76483828 124.44886711 129.50075178 126.16222177 126.53125 127.64697266 C124.82696028 127.75777734 123.11843935 127.8061427 121.41064453 127.82397461 C120.34258575 127.83680984 119.27452698 127.84964508 118.17410278 127.86286926 C117.01578949 127.8702562 115.8574762 127.87764313 114.6640625 127.88525391 C113.47779266 127.89332565 112.29152283 127.9013974 111.06930542 127.90971375 C108.55582139 127.92356223 106.04231849 127.93428095 103.52880859 127.94213867 C99.6790015 127.95937082 95.83004861 128.00325403 91.98046875 128.04736328 C89.541673 128.05748813 87.10286993 128.06600488 84.6640625 128.07275391 C83.50979767 128.09026199 82.35553284 128.10777008 81.16629028 128.12580872 C80.09192719 128.12288315 79.01756409 128.11995758 77.91064453 128.11694336 C76.96625519 128.1228096 76.02186584 128.12867584 75.04885864 128.13471985 C71.78301905 127.50201464 70.61599092 126.17774354 68.53125 123.64697266 C67.3661505 121.31677366 67.40792849 119.97697267 67.41099548 117.3822937 C67.40893349 116.04031921 67.40893349 116.04031921 67.40682983 114.67123413 C67.41042511 113.6872464 67.41402039 112.70325867 67.41772461 111.68945312 C67.41757858 110.65528259 67.41743256 109.62111206 67.4172821 108.55560303 C67.41798076 105.12510099 67.42577099 101.69465274 67.43359375 98.26416016 C67.4354581 95.89047271 67.43688192 93.51678489 67.43788147 91.14309692 C67.44170534 84.88607731 67.45153453 78.62908078 67.46258545 72.37207031 C67.47459771 64.86976092 67.47920243 57.36744382 67.48503876 49.86512756 C67.49474633 38.45905985 67.51390383 27.05304284 67.53125 15.64697266 C46.41125 15.64697266 25.29125 15.64697266 3.53125 15.64697266 C3.55445313 23.25244141 3.57765625 30.85791016 3.6015625 38.69384766 C3.61177916 43.50635106 3.62140693 48.31884113 3.62890625 53.13134766 C3.64087102 60.77330292 3.65503942 68.41521034 3.68212891 76.05712891 C3.70382794 82.21681493 3.71581245 88.37644967 3.72100449 94.53617096 C3.72470552 96.88855039 3.73193252 99.24092695 3.74271011 101.59328461 C3.75718581 104.88305268 3.75922957 108.17260765 3.75830078 111.46240234 C3.76549133 112.43919952 3.77268188 113.4159967 3.78009033 114.4223938 C3.777341 115.31979279 3.77459167 116.21719177 3.77175903 117.14178467 C3.77360262 117.91977795 3.77544621 118.69777122 3.77734566 119.49934006 C3.48869405 122.01835083 2.94373446 123.53856998 1.53125 125.64697266 C-1.31598063 127.55442092 -3.58909977 127.89550263 -6.97393799 127.88748169 C-7.87133698 127.89023102 -8.76873596 127.89298035 -9.69332886 127.89581299 C-11.15852463 127.88502716 -11.15852463 127.88502716 -12.65332031 127.87402344 C-13.6877829 127.87431549 -14.72224548 127.87460754 -15.78805542 127.87490845 C-19.20774723 127.87351497 -22.62722124 127.85795269 -26.046875 127.84228516 C-28.41770305 127.8385551 -30.78853265 127.83570809 -33.15936279 127.83370972 C-39.39994562 127.82607273 -45.64043539 127.80642358 -51.88098145 127.78430176 C-59.36830726 127.7602482 -66.85566419 127.75106267 -74.34301758 127.73939514 C-85.71832645 127.71999933 -97.09343111 127.68167702 -108.46875 127.64697266 C-108.46875 148.76697266 -108.46875 169.88697266 -108.46875 191.64697266 C-100.86328125 191.62376953 -93.2578125 191.60056641 -85.421875 191.57666016 C-80.6093716 191.5664435 -75.79688153 191.55681572 -70.984375 191.54931641 C-63.34241974 191.53735164 -55.70051231 191.52318323 -48.05859375 191.49609375 C-41.89890773 191.47439472 -35.73927299 191.4624102 -29.5795517 191.45721817 C-27.22717227 191.45351714 -24.8747957 191.44629014 -22.52243805 191.43551254 C-19.23266998 191.42103684 -15.943115 191.41899309 -12.65332031 191.41992188 C-11.67652313 191.41273132 -10.69972595 191.40554077 -9.69332886 191.39813232 C-8.34723038 191.40225632 -8.34723038 191.40225632 -6.97393799 191.40646362 C-5.80694807 191.40369824 -5.80694807 191.40369824 -4.6163826 191.400877 C-2.12921292 191.68587996 -0.57816523 192.30532804 1.53125 193.64697266 C3.62762746 196.79153885 3.78014851 197.49175874 3.77175903 201.06987 C3.77588303 202.42652771 3.77588303 202.42652771 3.78009033 203.81059265 C3.7693045 205.29520744 3.7693045 205.29520744 3.75830078 206.80981445 C3.75859283 207.85388458 3.75888489 208.89795471 3.75918579 209.97366333 C3.75779033 213.43125667 3.74221877 216.88863562 3.7265625 220.34619141 C3.72283314 222.74086896 3.71998581 225.13554804 3.71798706 227.53022766 C3.71034453 233.83822836 3.69069064 240.1461372 3.6685791 246.45410156 C3.64454052 254.01982983 3.63534265 261.58558878 3.62367249 269.1513443 C3.60426668 280.649951 3.56594826 292.1483561 3.53125 303.64697266 C24.65125 303.64697266 45.77125 303.64697266 67.53125 303.64697266 C67.44423828 292.14789063 67.44423828 292.14789063 67.35546875 280.41650391 C67.32992422 275.56296715 67.3058548 270.70951316 67.28710938 265.85595703 C67.25720768 258.15029715 67.22181561 250.44493401 67.15405273 242.73950195 C67.09976816 236.52791274 67.06983651 230.3166417 67.05686378 224.1048336 C67.04761766 221.73370033 67.02956229 219.36258468 67.00259972 216.99158669 C66.9663582 213.67296193 66.96130282 210.3556557 66.96362305 207.03686523 C66.93665848 205.56303627 66.93665848 205.56303627 66.90914917 204.05943298 C66.94186173 199.74180641 67.14716508 197.28108192 69.4173584 193.53308105 C73.93102151 190.79912015 77.73564901 190.98447404 82.92114258 191.0793457 C83.96550476 191.07861557 85.00986694 191.07788544 86.08587646 191.07713318 C89.53304226 191.08061272 92.9788519 191.11949353 96.42578125 191.15869141 C98.81759401 191.16801817 101.20941633 191.17513492 103.60124207 191.18013 C109.89299952 191.19921026 116.18417881 191.24832113 122.47570801 191.3036499 C130.02636517 191.36381782 137.57721578 191.38675361 145.12804413 191.41591644 C156.59618139 191.46438419 168.06305035 191.56019462 179.53125 191.64697266 C179.53125 170.52697266 179.53125 149.40697266 179.53125 127.64697266 C172.27125 127.64697266 165.01125 127.64697266 157.53125 127.64697266 C152.53125 123.64697266 152.53125 123.64697266 151.59375 120.64697266 C151.52818882 117.50003606 151.65722739 116.14566947 153.53125 113.64697266 C158.64657944 110.23369041 165.31432528 111.27506398 171.23022461 111.27636719 C173.45829673 111.27199318 175.68438733 111.23564954 177.91210938 111.19775391 C179.33593076 111.19188512 180.75976151 111.18791614 182.18359375 111.18603516 C183.47257568 111.17781738 184.76155762 111.16959961 186.08959961 111.16113281 C190.11847676 111.7298684 191.75258686 112.71252376 194.53125 115.64697266 C195.94432047 119.40778135 195.67898735 123.40362766 195.67651367 127.36547852 C195.68155159 128.52473595 195.68155159 128.52473595 195.68669128 129.70741272 C195.69618024 132.25889702 195.69814328 134.81031557 195.69921875 137.36181641 C195.70243246 139.13774136 195.70579662 140.91366605 195.70930481 142.68959045 C195.71529071 146.41098647 195.71714523 150.13235928 195.71655273 153.85375977 C195.71645107 158.61971794 195.73010974 163.38552727 195.74732494 168.15145016 C195.75844823 171.81890038 195.76047185 175.48631462 195.75994301 179.15377998 C195.76112238 180.91082841 195.76554175 182.66787779 195.77327538 184.42490959 C195.78308307 186.88306971 195.78019433 189.34090684 195.77416992 191.79907227 C195.77978943 192.52287079 195.78540894 193.24666931 195.79119873 193.99240112 C195.76641656 197.9759038 195.4986459 201.14655173 193.53125 204.64697266 C190.66971008 207.22032432 188.85862228 208.02135905 185.02606201 208.00773621 C184.12866302 208.0118602 183.23126404 208.01598419 182.30667114 208.02023315 C181.32987396 208.00944733 180.35307678 207.9986615 179.34667969 207.98754883 C178.3122171 207.98798691 177.27775452 207.98842499 176.21194458 207.98887634 C172.79214617 207.98678606 169.37283779 207.96344312 165.953125 207.93994141 C163.58229846 207.93434632 161.21146845 207.93007581 158.84063721 207.92707825 C152.60000028 207.91562267 146.35957274 207.88614908 140.11901855 207.85296631 C133.75124952 207.82228095 127.38344666 207.80857617 121.015625 207.79345703 C108.52074133 207.76128029 96.02601307 207.71007511 83.53125 207.64697266 C83.54013245 208.96384567 83.54901489 210.28071869 83.5581665 211.63749695 C83.6392174 224.04160204 83.69919878 236.44565347 83.73849869 248.84996319 C83.75938234 255.22731746 83.78771483 261.60445812 83.83300781 267.98168945 C83.87643683 274.13491226 83.90038125 280.28792948 83.91075897 286.44129372 C83.91815555 288.79008026 83.93259914 291.13885542 83.95417023 293.48755455 C83.98316419 296.77491029 83.98720756 300.06141414 83.98535156 303.34887695 C84.00692322 304.80867981 84.00692322 304.80867981 84.02893066 306.29797363 C84.00411905 310.35351342 83.81395055 313.06176548 82.03216553 316.75016785 C78.50626304 319.42436804 75.31658029 319.34761799 71.0625 319.29394531 C69.78379028 319.30708771 69.78379028 319.30708771 68.47924805 319.32049561 C65.66273019 319.34249372 62.84778367 319.32793581 60.03125 319.31103516 C58.07356464 319.31440318 56.11588132 319.31925568 54.15820312 319.32553101 C50.05578701 319.33290289 45.95391532 319.32218661 41.8515625 319.29882812 C36.59188505 319.27034024 31.33348318 319.28674251 26.07385254 319.31669044 C22.03147768 319.33475485 17.98940544 319.32900931 13.94702148 319.31605148 C12.00772959 319.3127151 10.06841025 319.31681269 8.12915039 319.32844925 C5.41869294 319.34114392 2.71030332 319.32180142 0 319.29394531 C-0.80219971 319.30406647 -1.60439941 319.31418762 -2.4309082 319.32461548 C-6.00442224 319.25654484 -8.09483259 318.93056814 -10.96966553 316.75016785 C-13.14207922 312.2531406 -12.99576288 308.28295153 -12.92285156 303.34887695 C-12.92343567 302.31426834 -12.92401978 301.27965973 -12.92462158 300.21369934 C-12.92183828 296.79918694 -12.8907334 293.38555103 -12.859375 289.97119141 C-12.85191352 287.60179623 -12.84622015 285.23239488 -12.84222412 282.86299133 C-12.82696065 276.63051275 -12.78767206 270.39840776 -12.7434082 264.16607666 C-12.70247126 257.80494236 -12.68421643 251.44374762 -12.6640625 245.08251953 C-12.62117901 232.60383988 -12.55291855 220.12543735 -12.46875 207.64697266 C-13.78562302 207.6558551 -15.10249603 207.66473755 -16.45927429 207.67388916 C-28.86337938 207.75494005 -41.26743082 207.81492144 -53.67174053 207.85422134 C-60.0490948 207.87510499 -66.42623547 207.90343749 -72.8034668 207.94873047 C-78.95668961 207.99215949 -85.10970683 208.0161039 -91.26307106 208.02648163 C-93.6118576 208.03387821 -95.96063276 208.0483218 -98.30933189 208.06989288 C-101.59668763 208.09888684 -104.88319148 208.10293021 -108.1706543 208.10107422 C-109.1438562 208.11545532 -110.11705811 208.12983643 -111.11975098 208.14465332 C-115.35116501 208.11876572 -117.82755201 208.01706226 -121.54988098 205.86859131 C-125.18929657 201.65496679 -124.61736042 197.28862387 -124.61401367 191.9284668 C-124.61737228 191.15562851 -124.6207309 190.38279022 -124.62419128 189.58653259 C-124.63368024 187.03504829 -124.63564328 184.48362975 -124.63671875 181.93212891 C-124.63993246 180.15620395 -124.64329662 178.38027926 -124.64680481 176.60435486 C-124.65279071 172.88295884 -124.65464523 169.16158604 -124.65405273 165.44018555 C-124.65395107 160.67422737 -124.66760974 155.90841804 -124.68482494 151.14249516 C-124.69594823 147.47504494 -124.69797185 143.80763069 -124.69744301 140.14016533 C-124.69862238 138.3831169 -124.70304175 136.62606752 -124.71077538 134.86903572 C-124.72058307 132.4108756 -124.71769433 129.95303847 -124.71166992 127.49487305 C-124.71728943 126.77107452 -124.72290894 126.047276 -124.72869873 125.30154419 C-124.70391656 121.31804152 -124.4361459 118.14739359 -122.46875 114.64697266 C-119.60721008 112.07362099 -117.79612228 111.27258626 -113.96356201 111.28620911 C-112.61746353 111.28002312 -112.61746353 111.28002312 -111.24417114 111.27371216 C-109.77897537 111.2898909 -109.77897537 111.2898909 -108.28417969 111.30639648 C-107.2497171 111.3059584 -106.21525452 111.30552032 -105.14944458 111.30506897 C-101.72964617 111.30715925 -98.31033779 111.33050219 -94.890625 111.35400391 C-92.51979846 111.35959899 -90.14896845 111.3638695 -87.77813721 111.36686707 C-81.53750028 111.37832264 -75.29707274 111.40779623 -69.05651855 111.440979 C-62.68874952 111.47166436 -56.32094666 111.48536914 -49.953125 111.50048828 C-37.45824133 111.53266502 -24.96351307 111.5838702 -12.46875 111.64697266 C-12.47763245 110.33009964 -12.48651489 109.01322662 -12.4956665 107.65644836 C-12.5767174 95.25234327 -12.63669878 82.84829184 -12.67599869 70.44398212 C-12.69688234 64.06662786 -12.72521483 57.68948719 -12.77050781 51.31225586 C-12.81393683 45.15903305 -12.83788125 39.00601583 -12.84825897 32.8526516 C-12.85565555 30.50386506 -12.87009914 28.15508989 -12.89167023 25.80639076 C-12.92066419 22.51903503 -12.92470756 19.23253118 -12.92285156 15.94506836 C-12.93723267 14.97186646 -12.95161377 13.99866455 -12.96643066 12.99597168 C-12.94161905 8.94043189 -12.75145055 6.23217983 -10.96966553 2.54377747 C-7.44376304 -0.13042273 -4.25408029 -0.05367268 0 0 Z " fill="#020102" transform="translate(220.46875,96.35302734375)"/>
<path d="M0 0 C0.80515045 0.05614471 1.6103009 0.11228943 2.43984985 0.1701355 C4.14310979 0.29270853 5.84610312 0.4190355 7.54882812 0.54882812 C10.146166 0.74086431 12.74431032 0.9018217 15.34375 1.0625 C17.00014437 1.18557208 18.65640127 1.31051156 20.3125 1.4375 C21.08661224 1.48045197 21.86072449 1.52340393 22.65829468 1.56765747 C26.74484337 1.91950043 28.45947798 2.35872978 31.79150391 4.97167969 C35.09860147 9.35150238 34.07698501 13.33649699 33.4296875 18.46386719 C29.79900118 43.66740301 22.71575775 67.62440775 11.7890625 90.6171875 C11.44294922 91.34663574 11.09683594 92.07608398 10.74023438 92.82763672 C2.64233414 109.58045594 -7.84959893 125.69906381 -20.2109375 139.6171875 C-21.33242188 140.88369141 -21.33242188 140.88369141 -22.4765625 142.17578125 C-23.98405753 143.86017621 -25.4994596 145.53753462 -27.0234375 147.20703125 C-29.14360367 149.54300004 -31.2079106 151.92045625 -33.2734375 154.3046875 C-36.97528286 158.46381964 -40.95020292 162.0448369 -45.2109375 165.6171875 C-46.13390625 166.42800781 -47.056875 167.23882812 -48.0078125 168.07421875 C-87.07698819 202.23874087 -144.26403204 228.69152395 -197.2109375 225.6171875 C-197.1490625 226.6484375 -197.0871875 227.6796875 -197.0234375 228.7421875 C-197.27140281 233.86680386 -198.44984661 237.01619578 -202.2734375 240.4921875 C-206.58791778 242.14454165 -210.69652824 242.73474056 -215.2109375 241.6171875 C-222.7210243 237.41292799 -228.79020208 230.37622619 -234.81298828 224.33081055 C-236.59413839 222.54647193 -238.38830665 220.77596062 -240.18359375 219.00585938 C-241.32633019 217.86539372 -242.4682857 216.72414494 -243.609375 215.58203125 C-244.40932388 214.79589699 -244.40932388 214.79589699 -245.22543335 213.99388123 C-248.71067398 210.46474597 -250.92268507 207.43397006 -251.43359375 202.44140625 C-250.91482971 195.52033484 -248.05118435 192.34813845 -243.2109375 187.6171875 C-242.1101567 186.49657898 -241.0113621 185.37401754 -239.9140625 184.25 C-233.90016766 178.12413131 -227.84463698 172.07834446 -221.2109375 166.6171875 C-219.7878125 165.4415625 -219.7878125 165.4415625 -218.3359375 164.2421875 C-214.44519929 161.2669171 -210.99363592 161.1195657 -206.2109375 161.6171875 C-201.6495399 163.48321379 -199.46299605 166.27988955 -197.2109375 170.6171875 C-197.14450874 172.94957505 -197.13633112 175.28504721 -197.2109375 177.6171875 C-143.53038656 170.94901915 -92.91865562 151.7634969 -58.2578125 108.16015625 C-53.03747534 101.83398431 -53.03747534 101.83398431 -48.3984375 100.6171875 C-47.3465625 100.6171875 -46.2946875 100.6171875 -45.2109375 100.6171875 C-41.14529018 99.26197173 -40.075859 96.57683579 -38.0234375 93.0546875 C-37.65541016 92.43916016 -37.28738281 91.82363281 -36.90820312 91.18945312 C-36.0012585 89.67002641 -35.10505582 88.14419717 -34.2109375 86.6171875 C-34.8709375 85.6271875 -35.5309375 84.6371875 -36.2109375 83.6171875 C-36.77991111 77.46192757 -35.63617758 73.553909 -32.7109375 68.1171875 C-23.17977118 49.1213414 -17.46950153 28.04990602 -14.80078125 7 C-14.11306907 4.22182498 -13.15916264 2.70090072 -11.2109375 0.6171875 C-7.37708258 -0.66076414 -3.96448869 -0.280704 0 0 Z " fill="#010100" transform="translate(461.2109375,270.3828125)"/>
<path d="M0 0 C0.79921875 -0.0515625 1.5984375 -0.103125 2.421875 -0.15625 C11.34931526 1.91531072 18.58745139 11.49823954 24.85205078 17.78637695 C26.63320089 19.57071557 28.42736915 21.34122688 30.22265625 23.11132812 C31.36539269 24.25179378 32.5073482 25.39304256 33.6484375 26.53515625 C34.18173676 27.05924576 34.71503601 27.58333527 35.26449585 28.12330627 C38.74973648 31.65244153 40.96174757 34.68321744 41.47265625 39.67578125 C40.95389221 46.59685266 38.09024685 49.76904905 33.25 54.5 C32.1492192 55.62060852 31.0504246 56.74316996 29.953125 57.8671875 C23.93923016 63.99305619 17.88369948 70.03884304 11.25 75.5 C10.30125 76.28375 9.3525 77.0675 8.375 77.875 C4.48426179 80.8502704 1.03269842 80.9976218 -3.75 80.5 C-8.3113976 78.63397371 -10.49794145 75.83729795 -12.75 71.5 C-12.81642876 69.16761245 -12.82460638 66.83214029 -12.75 64.5 C-57.62107101 70.23287741 -98.51642957 83.05843498 -132.375 114.3125 C-134.69016209 116.44488614 -137.05698197 118.5036736 -139.4375 120.5625 C-143.59392251 124.26840119 -147.24289453 128.178483 -150.75 132.5 C-151.89082031 133.90185547 -151.89082031 133.90185547 -153.0546875 135.33203125 C-159.66971666 143.61811573 -165.37764992 152.36655417 -170.75 161.5 C-171.10835938 162.10537598 -171.46671875 162.71075195 -171.8359375 163.33447266 C-183.81212985 183.83694856 -190.69989528 206.88859628 -194.31933594 230.24194336 C-194.4640332 231.12889893 -194.60873047 232.01585449 -194.7578125 232.9296875 C-194.87785645 233.71585449 -194.99790039 234.50202148 -195.12158203 235.31201172 C-195.91503663 238.07461473 -196.64904293 239.50953325 -198.75 241.5 C-205.79874654 243.20231042 -212.95974832 242.19432195 -220.10253906 241.56835938 C-222.37449445 241.37504302 -224.64735825 241.21462979 -226.921875 241.0546875 C-228.37777606 240.93170577 -229.83351384 240.80677217 -231.2890625 240.6796875 C-232.60084473 240.57382324 -233.91262695 240.46795898 -235.26416016 240.35888672 C-239.48110432 239.31986098 -241.10922134 237.90333637 -243.75 234.5 C-248.46239664 192.97756171 -219.98205459 141.25778211 -195.75 109.5 C-194.98816406 108.48164062 -194.22632813 107.46328125 -193.44140625 106.4140625 C-191.33292111 103.80494918 -189.41380686 101.5403627 -186.75 99.5 C-184.609375 99.3125 -184.609375 99.3125 -182.4375 99.625 C-178.66004442 100.11392599 -177.72815438 99.48435453 -174.515625 97.18359375 C-168.49104299 91.89705828 -168.49104299 91.89705828 -165.12890625 84.875 C-165.18119346 82.59219415 -165.18119346 82.59219415 -165.71875 80.53515625 C-165.77026688 77.18011924 -164.0258852 75.87821183 -161.75 73.5 C-159.22900177 71.32290715 -156.60234879 69.3097196 -153.9375 67.3125 C-153.17977295 66.74152588 -152.4220459 66.17055176 -151.64135742 65.58227539 C-113.98782336 37.44146156 -66.01376052 15.88065395 -18.125 16.4375 C-16.58972656 16.45103516 -16.58972656 16.45103516 -15.0234375 16.46484375 C-14.27320313 16.47644531 -13.52296875 16.48804688 -12.75 16.5 C-12.8325 15.489375 -12.915 14.47875 -13 13.4375 C-12.68582726 8.48927941 -11.59047204 6.52400205 -8.75 2.5 C-5.85288506 0.66475134 -3.408305 0.13025369 0 0 Z " fill="#010100" transform="translate(260.75,-0.5)"/>
<path d="M0 0 C6.6 0 13.2 0 20 0 C20.99 2.475 20.99 2.475 22 5 C28.98349703 9.65566469 38.61553829 7.6188881 47 8 C47 29.12 47 50.24 47 72 C39.31074219 72.06058594 31.62148438 72.12117188 23.69921875 72.18359375 C18.83658275 72.22407442 13.97395253 72.26484068 9.11132812 72.30664062 C1.38812185 72.37300325 -6.3350833 72.4382912 -14.05834961 72.49731445 C-20.28290512 72.54495016 -26.50740468 72.5972928 -32.73189354 72.65294075 C-35.11019693 72.67336788 -37.48851568 72.69208036 -39.86684608 72.70907402 C-43.19034006 72.73310998 -46.5137279 72.76316585 -49.8371582 72.79467773 C-50.8269014 72.8004332 -51.81664459 72.80618866 -52.83638 72.81211853 C-53.74081848 72.82190735 -54.64525696 72.83169617 -55.57710266 72.84178162 C-56.75653678 72.85146044 -56.75653678 72.85146044 -57.95979786 72.8613348 C-60.20250465 72.92796282 -60.20250465 72.92796282 -63 74 C-63.93286372 76.79859117 -64.13445436 78.52708143 -64.15821838 81.42289734 C-64.1680072 82.32733582 -64.17779602 83.23177429 -64.18788147 84.16362 C-64.19363693 85.15336319 -64.1993924 86.14310638 -64.20532227 87.1628418 C-64.21522186 88.20691193 -64.22512146 89.25098206 -64.23532104 90.32669067 C-64.26695585 93.78417682 -64.2917014 97.24167671 -64.31640625 100.69921875 C-64.33697406 103.09390117 -64.35797048 105.48857995 -64.37937927 107.883255 C-64.43461778 114.19118297 -64.48401926 120.4991438 -64.53222656 126.80712891 C-64.59125244 134.37291312 -64.65749022 141.93863717 -64.72252655 149.50437164 C-64.82055845 161.00287774 -64.9093993 172.50142212 -65 184 C-86.12 184 -107.24 184 -129 184 C-129.64174095 165.80397017 -129.64174095 165.80397017 -129.78125 157.97460938 C-129.87648911 152.65516016 -129.9883937 147.34016465 -130.20703125 142.02416992 C-131.45386778 110.90904488 -131.45386778 110.90904488 -125.59130859 103.90673828 C-122.36890532 100.97366417 -118.91964399 98.92945875 -114.99856567 97.06524658 C-111.69454714 95.30418639 -109.30376134 92.85139225 -106.625 90.25 C-103.21540462 87.05978877 -99.77749257 83.9337228 -96.25 80.875 C-84.84105246 70.60511003 -74.59983997 59.07132331 -65.38037109 46.81738281 C-63.90744848 44.8781476 -62.40402739 42.96557134 -60.89453125 41.0546875 C-60.36069824 40.37148438 -59.82686523 39.68828125 -59.27685547 38.984375 C-58.17190877 37.57338779 -57.05753996 36.16973058 -55.93408203 34.7734375 C-52.85640601 30.84198905 -50.46421265 27.06726149 -48.41015625 22.5078125 C-43.120388 11.42889229 -43.120388 11.42889229 -38 8 C-31.10527182 6.30399548 -24.21474734 6.3888859 -17.15893555 6.77539062 C-16.11850349 6.8280735 -16.11850349 6.8280735 -15.05705261 6.88182068 C-13.13501094 6.99765307 -11.21650362 7.16831126 -9.29882812 7.34204102 C-5.80777106 7.2877896 -5.80777106 7.2877896 -3.12304688 4.62475586 C-1.01725316 2.213492 -1.01725316 2.213492 0 0 Z " fill="#DE73C0" transform="translate(353,216)"/>
<path d="M0 0 C0.84908432 -0.00241196 1.69816864 -0.00482391 2.57298279 -0.00730896 C4.36242356 -0.00633215 6.15189516 0.0070219 7.94116211 0.03198242 C10.67861525 0.06634376 13.41284778 0.05262181 16.15039062 0.03320312 C17.8919408 0.04010057 19.63348267 0.04977204 21.375 0.0625 C22.19174698 0.05754013 23.00849396 0.05258026 23.84999084 0.04747009 C27.33170953 0.11960499 29.68745841 0.34898039 32.64331055 2.25708008 C34.59647173 5.39188281 34.57864788 7.46342911 34.51171875 11.14453125 C34.49882813 12.39492188 34.4859375 13.6453125 34.47265625 14.93359375 C34.43914062 16.23554688 34.405625 17.5375 34.37109375 18.87890625 C34.35304688 20.19632812 34.335 21.51375 34.31640625 22.87109375 C34.26925646 26.12442933 34.20345419 29.3763025 34.12109375 32.62890625 C35.30868286 32.59748535 35.30868286 32.59748535 36.52026367 32.56542969 C40.11624393 32.48215158 43.71202111 32.43020734 47.30859375 32.37890625 C48.55447266 32.34539062 49.80035156 32.311875 51.08398438 32.27734375 C52.88706055 32.25800781 52.88706055 32.25800781 54.7265625 32.23828125 C56.38401489 32.20686035 56.38401489 32.20686035 58.07495117 32.17480469 C61.83467877 32.73528344 63.45675677 33.96426852 66.12109375 36.62890625 C67.33166513 40.2606204 67.30232763 43.6193826 67.32421875 47.40234375 C67.32991882 48.16310211 67.3356189 48.92386047 67.3414917 49.70767212 C67.35093123 51.31649387 67.35747153 52.92533487 67.36132812 54.53417969 C67.37103076 56.9879754 67.40206155 59.44093214 67.43359375 61.89453125 C67.4401246 63.45963046 67.44537475 65.02473564 67.44921875 66.58984375 C67.46156555 67.32020844 67.47391235 68.05057312 67.4866333 68.80307007 C67.46732068 73.24763053 67.02129853 76.19370456 64.12109375 79.62890625 C60.46434477 81.68267036 57.30831746 81.86672393 53.1640625 81.82421875 C52.05224609 81.81777344 50.94042969 81.81132812 49.79492188 81.8046875 C48.06918945 81.77955078 48.06918945 81.77955078 46.30859375 81.75390625 C45.13876953 81.74488281 43.96894531 81.73585938 42.76367188 81.7265625 C39.88260322 81.70304357 37.00195386 81.67017477 34.12109375 81.62890625 C34.14727783 82.45616211 34.17346191 83.28341797 34.20043945 84.13574219 C34.30436206 87.88327043 34.36940864 91.63049575 34.43359375 95.37890625 C34.47548828 96.68085938 34.51738281 97.9828125 34.56054688 99.32421875 C34.57666016 100.57460938 34.59277344 101.825 34.609375 103.11328125 C34.63555908 104.26538086 34.66174316 105.41748047 34.6887207 106.60449219 C34.12109375 109.62890625 34.12109375 109.62890625 32.12963867 112.00073242 C28.13231211 114.16401822 24.97520517 114.22344403 20.49609375 114.1953125 C19.67157715 114.20151108 18.84706055 114.20770966 17.99755859 114.21409607 C16.25945208 114.22117985 14.52127751 114.21804538 12.78320312 114.20532227 C10.12893539 114.19144724 7.47818945 114.22555425 4.82421875 114.26367188 C3.13150956 114.26462308 1.43879597 114.26276416 -0.25390625 114.2578125 C-1.04361816 114.27107071 -1.83333008 114.28432892 -2.64697266 114.29798889 C-6.71874167 114.22942269 -8.47360519 113.91715249 -11.88745117 111.48925781 C-14.26420254 108.07550043 -14.46490373 106.35799993 -14.3671875 102.234375 C-14.35107422 101.03232422 -14.33496094 99.83027344 -14.31835938 98.59179688 C-14.27646484 97.34591797 -14.23457031 96.10003906 -14.19140625 94.81640625 C-14.16884766 93.55119141 -14.14628906 92.28597656 -14.12304688 90.98242188 C-14.06419703 87.86338006 -13.98201995 84.74674723 -13.87890625 81.62890625 C-14.61004639 81.63937988 -15.34118652 81.64985352 -16.09448242 81.66064453 C-19.41842184 81.70230914 -22.7423062 81.72826581 -26.06640625 81.75390625 C-27.21689453 81.77066406 -28.36738281 81.78742188 -29.55273438 81.8046875 C-30.66455078 81.81113281 -31.77636719 81.81757813 -32.921875 81.82421875 C-34.4536438 81.8399292 -34.4536438 81.8399292 -36.01635742 81.85595703 C-39.06749785 81.6139476 -41.16958276 81.0424408 -43.87890625 79.62890625 C-46.49795284 75.70033636 -46.22110099 72.29051593 -46.25 67.7265625 C-46.25902847 66.85245224 -46.26805695 65.97834198 -46.27735901 65.07774353 C-46.29186342 63.22935411 -46.30074872 61.38091333 -46.30444336 59.5324707 C-46.31634896 56.70501316 -46.36553792 53.87973182 -46.41601562 51.05273438 C-46.42547892 49.25652107 -46.4327144 47.46029436 -46.4375 45.6640625 C-46.45703232 44.81916763 -46.47656464 43.97427277 -46.49668884 43.10377502 C-46.46564106 39.06378186 -46.409869 37.26058558 -43.74365234 34.08862305 C-40.37768565 32.37351185 -38.25001514 32.16689471 -34.484375 32.23828125 C-33.28232422 32.25117188 -32.08027344 32.2640625 -30.84179688 32.27734375 C-29.59591797 32.31085938 -28.35003906 32.344375 -27.06640625 32.37890625 C-25.80119141 32.39695312 -24.53597656 32.415 -23.23242188 32.43359375 C-20.1138129 32.48066709 -16.99674652 32.54641531 -13.87890625 32.62890625 C-13.90509033 31.83718018 -13.93127441 31.0454541 -13.95825195 30.22973633 C-14.06234747 26.63382908 -14.12727525 23.03823894 -14.19140625 19.44140625 C-14.23330078 18.19552734 -14.27519531 16.94964844 -14.31835938 15.66601562 C-14.33447266 14.46396484 -14.35058594 13.26191406 -14.3671875 12.0234375 C-14.39337158 10.91846924 -14.41955566 9.81350098 -14.4465332 8.67504883 C-12.92194952 0.49344424 -7.04924633 -0.11471434 0 0 Z " fill="#010001" transform="translate(59.87890625,336.37109375)"/>
<path d="M0 0 C0.8245166 -0.00619858 1.6490332 -0.01239716 2.49853516 -0.01878357 C4.23664167 -0.02586735 5.97481624 -0.02273288 7.71289062 -0.01000977 C10.36715836 0.00386526 13.0179043 -0.03024175 15.671875 -0.06835938 C17.36458419 -0.06931058 19.05729778 -0.06745166 20.75 -0.0625 C21.53971191 -0.07575821 22.32942383 -0.08901642 23.14306641 -0.10267639 C27.21483542 -0.03411019 28.96969894 0.27816001 32.38354492 2.70605469 C34.76029629 6.11981207 34.96099748 7.83731257 34.86328125 11.9609375 C34.84716797 13.16298828 34.83105469 14.36503906 34.81445312 15.60351562 C34.77255859 16.84939453 34.73066406 18.09527344 34.6875 19.37890625 C34.66494141 20.64412109 34.64238281 21.90933594 34.61914062 23.21289062 C34.56029078 26.33193244 34.4781137 29.44856527 34.375 32.56640625 C35.10614014 32.55593262 35.83728027 32.54545898 36.59057617 32.53466797 C39.91451559 32.49300336 43.23839995 32.46704669 46.5625 32.44140625 C47.71298828 32.42464844 48.86347656 32.40789062 50.04882812 32.390625 C51.16064453 32.38417969 52.27246094 32.37773438 53.41796875 32.37109375 C54.43914795 32.36062012 55.46032715 32.35014648 56.51245117 32.33935547 C59.5635916 32.5813649 61.66567651 33.1528717 64.375 34.56640625 C66.99404659 38.49497614 66.71719474 41.90479657 66.74609375 46.46875 C66.75512222 47.34286026 66.7641507 48.21697052 66.77345276 49.11756897 C66.78795717 50.96595839 66.79684247 52.81439917 66.80053711 54.6628418 C66.81244271 57.49029934 66.86163167 60.31558068 66.91210938 63.14257812 C66.92157267 64.93879143 66.92880815 66.73501814 66.93359375 68.53125 C66.95312607 69.37614487 66.97265839 70.22103973 66.99278259 71.09153748 C66.96173481 75.13153064 66.90596275 76.93472692 64.23974609 80.10668945 C60.8737794 81.82180065 58.74610889 82.02841779 54.98046875 81.95703125 C53.77841797 81.94414062 52.57636719 81.93125 51.33789062 81.91796875 C50.09201172 81.88445312 48.84613281 81.8509375 47.5625 81.81640625 C46.29728516 81.79835938 45.03207031 81.7803125 43.72851562 81.76171875 C40.60990665 81.71464541 37.49284027 81.64889719 34.375 81.56640625 C34.40118408 82.35813232 34.42736816 83.1498584 34.4543457 83.96557617 C34.55844122 87.56148342 34.623369 91.15707356 34.6875 94.75390625 C34.72939453 95.99978516 34.77128906 97.24566406 34.81445312 98.52929688 C34.83056641 99.73134766 34.84667969 100.93339844 34.86328125 102.171875 C34.88946533 103.27684326 34.91564941 104.38181152 34.94262695 105.52026367 C34.15767624 109.73266369 32.8606095 111.10048103 29.375 113.56640625 C26.40280814 114.25797897 23.53725005 114.24480208 20.49609375 114.1953125 C19.22246727 114.19893044 19.22246727 114.19893044 17.92311096 114.20262146 C16.13367019 114.20164465 14.34419859 114.1882906 12.55493164 114.16333008 C9.8174785 114.12896874 7.08324597 114.14269069 4.34570312 114.16210938 C2.60415295 114.15521193 0.86261108 114.14554046 -0.87890625 114.1328125 C-1.69565323 114.13777237 -2.51240021 114.14273224 -3.35389709 114.14784241 C-6.83561578 114.07570751 -9.19136466 113.84633211 -12.1472168 111.93823242 C-14.10037798 108.80342969 -14.08255413 106.73188339 -14.015625 103.05078125 C-14.00273437 101.80039063 -13.98984375 100.55 -13.9765625 99.26171875 C-13.94304687 97.95976562 -13.90953125 96.6578125 -13.875 95.31640625 C-13.85695313 93.99898438 -13.83890625 92.6815625 -13.8203125 91.32421875 C-13.77316271 88.07088317 -13.70736044 84.81901 -13.625 81.56640625 C-14.81258911 81.59782715 -14.81258911 81.59782715 -16.02416992 81.62988281 C-19.62015018 81.71316092 -23.21592736 81.76510516 -26.8125 81.81640625 C-28.05837891 81.84992188 -29.30425781 81.8834375 -30.58789062 81.91796875 C-32.3909668 81.93730469 -32.3909668 81.93730469 -34.23046875 81.95703125 C-35.88792114 81.98845215 -35.88792114 81.98845215 -37.57885742 82.02050781 C-41.33858502 81.46002906 -42.96066302 80.23104398 -45.625 77.56640625 C-46.83557138 73.9346921 -46.80623388 70.5759299 -46.828125 66.79296875 C-46.83382507 66.03221039 -46.83952515 65.27145203 -46.84539795 64.48764038 C-46.85483748 62.87881863 -46.86137778 61.26997763 -46.86523438 59.66113281 C-46.87493701 57.2073371 -46.9059678 54.75438036 -46.9375 52.30078125 C-46.94403085 50.73568204 -46.949281 49.17057686 -46.953125 47.60546875 C-46.9654718 46.87510406 -46.9778186 46.14473938 -46.99053955 45.39224243 C-46.97122693 40.94768197 -46.52520478 38.00160794 -43.625 34.56640625 C-39.96825102 32.51264214 -36.81222371 32.32858857 -32.66796875 32.37109375 C-31.55615234 32.37753906 -30.44433594 32.38398437 -29.29882812 32.390625 C-27.5730957 32.41576172 -27.5730957 32.41576172 -25.8125 32.44140625 C-24.64267578 32.45042969 -23.47285156 32.45945312 -22.26757812 32.46875 C-19.38650947 32.49226893 -16.50586011 32.52513773 -13.625 32.56640625 C-13.65118408 31.73915039 -13.67736816 30.91189453 -13.7043457 30.05957031 C-13.80826831 26.31204207 -13.87331489 22.56481675 -13.9375 18.81640625 C-13.97939453 17.51445313 -14.02128906 16.2125 -14.06445312 14.87109375 C-14.08056641 13.62070313 -14.09667969 12.3703125 -14.11328125 11.08203125 C-14.13946533 9.92993164 -14.16564941 8.77783203 -14.19262695 7.59082031 C-13.625 4.56640625 -13.625 4.56640625 -11.63354492 2.19458008 C-7.63621836 0.03129428 -4.47911142 -0.02813153 0 0 Z " fill="#010001" transform="translate(431.625,61.43359375)"/>
<path d="M0 0 C3.46629835 1.48653506 5.69022036 3.45722351 8.328125 6.1328125 C9.52695312 7.34130859 9.52695312 7.34130859 10.75 8.57421875 C11.575 9.41597656 12.4 10.25773437 13.25 11.125 C14.09046875 11.97449219 14.9309375 12.82398438 15.796875 13.69921875 C17.86915683 15.79504923 19.93662393 17.89540713 22 20 C18.05866783 28.41327088 9.22942783 35.29951122 2 41 C1.67 41 1.34 41 1 41 C0.54427083 38.98177083 0.08854167 36.96354167 -0.3671875 34.9453125 C-0.90474428 32.79280036 -0.90474428 32.79280036 -3 31 C-44.25022063 25.17409105 -91.7885969 43.41900376 -125 67 C-125.95132813 67.67546875 -126.90265625 68.3509375 -127.8828125 69.046875 C-143.27769019 80.29539896 -157.25462672 92.95600728 -169 108 C-169.42152344 108.53447754 -169.84304687 109.06895508 -170.27734375 109.61962891 C-192.72539804 138.28752614 -204.8957112 170.65497121 -212 206 C-214.08326131 206.02709444 -216.16662441 206.04643873 -218.25 206.0625 C-219.99023438 206.07990234 -219.99023438 206.07990234 -221.765625 206.09765625 C-224.40977128 206.01782092 -226.49826091 205.78643778 -229 205 C-230.16388658 166.33872406 -205.54145946 124.82294076 -182.24584961 95.61547852 C-178.89895191 91.27559569 -178.81760283 88.27938486 -179 83 C-179 77.47852501 -176.25624277 75.35671438 -172.61767578 71.65332031 C-170.24258424 69.43415771 -168.64758949 68.06035227 -165.359375 67.75390625 C-163.74675711 68.07592272 -162.14140791 68.43782421 -160.54833984 68.84570312 C-157.19421849 69.04878846 -156.2648451 68.12069079 -153.7421875 65.96484375 C-152.96053223 65.31660645 -152.17887695 64.66836914 -151.37353516 64.00048828 C-150.59026855 63.34032715 -149.80700195 62.68016602 -149 62 C-109.36921804 30.90810187 -63.83325294 14.12799229 -13.60888672 11.82128906 C-11.80701904 11.72412598 -11.80701904 11.72412598 -9.96875 11.625 C-8.89044922 11.57601563 -7.81214844 11.52703125 -6.70117188 11.4765625 C-3.72051736 10.95069142 -2.76128212 10.41429592 -1 8 C-0.42982192 5.95899762 -0.42982192 5.95899762 -0.3125 3.8125 C-0.1578125 1.9253125 -0.1578125 1.9253125 0 0 Z " fill="#B4E144" transform="translate(263,19)"/>
<path d="M0 0 C1.89575251 -0.02721176 3.79161979 -0.04649136 5.6875 -0.0625 C6.74324219 -0.07410156 7.79898438 -0.08570313 8.88671875 -0.09765625 C11.72410262 -0.00865425 14.2438919 0.35060162 17 1 C16.13147382 44.97900767 -10.53690593 91.51883212 -40.44677734 122.39550781 C-41.55730414 123.54269142 -42.66105712 124.69644797 -43.76025391 125.85449219 C-67.6016435 150.92532893 -96.55046823 169.18304825 -129 181 C-129.85158691 181.31211426 -130.70317383 181.62422852 -131.58056641 181.94580078 C-153.35639531 189.77526626 -175.79527597 193.33343459 -198.84790039 194.28051758 C-200.58027954 194.36209106 -200.58027954 194.36209106 -202.34765625 194.4453125 C-203.36867432 194.48156738 -204.38969238 194.51782227 -205.44165039 194.55517578 C-208.34144695 195.05936791 -209.2700404 195.66197465 -211 198 C-211.57017808 200.04100238 -211.57017808 200.04100238 -211.6875 202.1875 C-211.790625 203.445625 -211.89375 204.70375 -212 206 C-215.46629835 204.51346494 -217.69022036 202.54277649 -220.328125 199.8671875 C-221.12734375 199.06152344 -221.9265625 198.25585938 -222.75 197.42578125 C-223.575 196.58402344 -224.4 195.74226562 -225.25 194.875 C-226.51070312 193.60076172 -226.51070312 193.60076172 -227.796875 192.30078125 C-229.86915683 190.20495077 -231.93662393 188.10459287 -234 186 C-230.2785448 178.12151253 -220.86194999 168.930975 -213 165 C-212.54427083 167.01822917 -212.08854167 169.03645833 -211.6328125 171.0546875 C-211.09525572 173.20719964 -211.09525572 173.20719964 -209 175 C-205.3388753 175.50048689 -201.62870574 175.38051709 -197.9375 175.375 C-196.82656982 175.37338867 -195.71563965 175.37177734 -194.57104492 175.37011719 C-177.77978173 175.12907731 -160.92272703 172.37302784 -145 167 C-144.28134766 166.76974121 -143.56269531 166.53948242 -142.82226562 166.30224609 C-115.23974488 157.46242339 -90.86318181 144.00313778 -69 125 C-68.44731445 124.52175781 -67.89462891 124.04351562 -67.32519531 123.55078125 C-50.48208365 109.79520156 -50.48208365 109.79520156 -40.5625 91.6875 C-40.754849 88.85561452 -40.754849 88.85561452 -43 87 C-42.44648988 80.95290198 -37.79070077 74.56028935 -34 70 C-31.41911311 69.03427598 -29.79554401 68.93720357 -27.078125 69.25 C-24.79001086 69.18759809 -24.79001086 69.18759809 -23.00390625 67.0625 C-20.47319788 63.1949067 -18.55793078 59.2199242 -16.6875 55 C-16.10210449 53.68092651 -16.10210449 53.68092651 -15.50488281 52.33520508 C-8.13971148 35.38478933 -3.5428371 18.10700532 0 0 Z " fill="#A8D240" transform="translate(461,287)"/>
<path d="M0 0 C5.94 0 11.88 0 18 0 C18.02578125 1.97484375 18.0515625 3.9496875 18.078125 5.984375 C18.13439813 8.57293901 18.19174563 11.16147982 18.25 13.75 C18.26417969 15.05195313 18.27835938 16.35390625 18.29296875 17.6953125 C18.32519531 18.94570313 18.35742188 20.19609375 18.390625 21.484375 C18.41157227 22.63647461 18.43251953 23.78857422 18.45410156 24.97558594 C18.79329824 28.05224279 18.79329824 28.05224279 20.64453125 30.36914062 C23.67778316 32.46927773 25.62356734 32.54006731 29.296875 32.609375 C30.50214844 32.64160156 31.70742187 32.67382812 32.94921875 32.70703125 C34.20347656 32.72121094 35.45773438 32.73539062 36.75 32.75 C38.01972656 32.77964844 39.28945312 32.80929687 40.59765625 32.83984375 C43.73142836 32.91053034 46.8657185 32.95753006 50 33 C50 38.61 50 44.22 50 50 C48.01355469 50.03738281 46.02710937 50.07476562 43.98046875 50.11328125 C42.05425387 50.16195816 40.12804005 50.21073808 38.2019043 50.26245117 C36.2070937 50.31201319 34.21192743 50.34651133 32.21679688 50.38085938 C30.96318359 50.41630859 29.70957031 50.45175781 28.41796875 50.48828125 C27.26063232 50.51446533 26.1032959 50.54064941 24.91088867 50.56762695 C22.05949318 50.79960439 22.05949318 50.79960439 20.13085938 52.13085938 C18.4608539 54.89112748 18.56087231 57.20944398 18.48828125 60.41796875 C18.45283203 61.67158203 18.41738281 62.92519531 18.38085938 64.21679688 C18.35830078 65.52712891 18.33574219 66.83746094 18.3125 68.1875 C18.27932334 69.52282013 18.24483334 70.85810832 18.20898438 72.19335938 C18.12638491 75.46193825 18.06151996 78.73095644 18 82 C12.39 82 6.78 82 1 82 C0.98582031 80.18113281 0.97164062 78.36226563 0.95703125 76.48828125 C0.91013022 74.09632881 0.86188285 71.70440249 0.8125 69.3125 C0.80669922 68.11431641 0.80089844 66.91613281 0.79492188 65.68164062 C0.67311664 60.82296515 0.55318673 57.07564087 -1.6875 52.71875 C-7.14987606 49.88449827 -12.75123548 50.2157211 -18.8125 50.1875 C-20.07771484 50.16236328 -21.34292969 50.13722656 -22.64648438 50.11132812 C-25.76398889 50.05250729 -28.88202828 50.02337947 -32 50 C-32 44.39 -32 38.78 -32 33 C-30.09734375 32.96261719 -28.1946875 32.92523438 -26.234375 32.88671875 C-23.7395634 32.82106581 -21.24477261 32.75461825 -18.75 32.6875 C-16.86861328 32.65366211 -16.86861328 32.65366211 -14.94921875 32.61914062 C-13.74394531 32.58369141 -12.53867187 32.54824219 -11.296875 32.51171875 C-9.63156738 32.47244263 -9.63156738 32.47244263 -7.93261719 32.43237305 C-4.61428206 31.94313133 -3.2097142 31.52988656 -1 29 C-0.354631 25.90989264 -0.354631 25.90989264 -0.390625 22.36328125 C-0.35839844 21.06455078 -0.32617188 19.76582031 -0.29296875 18.42773438 C-0.27822414 17.05599405 -0.26390669 15.68424907 -0.25 14.3125 C-0.22184125 12.92899889 -0.19191392 11.54553256 -0.16015625 10.16210938 C-0.08934683 6.77505902 -0.0424236 3.38752481 0 0 Z " fill="#D94DAE" transform="translate(61,352)"/>
<path d="M0 0 C5.61 0 11.22 0 17 0 C17.02578125 1.81886719 17.0515625 3.63773437 17.078125 5.51171875 C17.1344062 7.90366982 17.19175353 10.29559598 17.25 12.6875 C17.26417969 13.88568359 17.27835937 15.08386719 17.29296875 16.31835938 C17.32519531 17.47529297 17.35742188 18.63222656 17.390625 19.82421875 C17.41157227 20.88729248 17.43251953 21.95036621 17.45410156 23.0456543 C18.14611801 26.79077548 19.18726487 28.43769801 22 31 C25.07711583 31.77635561 25.07711583 31.77635561 28.515625 31.70703125 C29.76601563 31.73603516 31.01640625 31.76503906 32.3046875 31.79492188 C33.60664063 31.80072266 34.90859375 31.80652344 36.25 31.8125 C37.56742187 31.83763672 38.88484375 31.86277344 40.2421875 31.88867188 C43.49446972 31.94759003 46.74726799 31.97664487 50 32 C50 37.61 50 43.22 50 49 C48.09734375 49.03738281 46.1946875 49.07476562 44.234375 49.11328125 C41.7395634 49.17893419 39.24477261 49.24538175 36.75 49.3125 C34.86861328 49.34633789 34.86861328 49.34633789 32.94921875 49.38085938 C31.74394531 49.41630859 30.53867187 49.45175781 29.296875 49.48828125 C27.63156738 49.52755737 27.63156738 49.52755737 25.93261719 49.56762695 C22.61428206 50.05686867 21.2097142 50.47011344 19 53 C18.354631 56.09010736 18.354631 56.09010736 18.390625 59.63671875 C18.35839844 60.93544922 18.32617188 62.23417969 18.29296875 63.57226562 C18.27822414 64.94400595 18.26390669 66.31575093 18.25 67.6875 C18.22184125 69.07100111 18.19191392 70.45446744 18.16015625 71.83789062 C18.08934683 75.22494098 18.0424236 78.61247519 18 82 C12.06 82 6.12 82 0 82 C-0.02578125 79.94136719 -0.0515625 77.88273437 -0.078125 75.76171875 C-0.1198473 73.76600194 -0.16170819 71.77028533 -0.20751953 69.7746582 C-0.23572797 68.38871604 -0.25694333 67.00261304 -0.27099609 65.61645508 C-0.29242421 63.62292596 -0.34117014 61.62974954 -0.390625 59.63671875 C-0.41157227 58.43748779 -0.43251953 57.23825684 -0.45410156 56.00268555 C-0.73991535 52.97316471 -0.73991535 52.97316471 -2.64453125 51.1171875 C-5.64714714 49.69306123 -7.97574727 49.56660973 -11.296875 49.48828125 C-13.10478516 49.43510742 -13.10478516 49.43510742 -14.94921875 49.38085938 C-16.20347656 49.35830078 -17.45773437 49.33574219 -18.75 49.3125 C-20.65458984 49.26125977 -20.65458984 49.26125977 -22.59765625 49.20898438 C-25.73145999 49.12651586 -28.86571624 49.06158146 -32 49 C-32 43.39 -32 37.78 -32 32 C-29.14601563 31.96132812 -29.14601563 31.96132812 -26.234375 31.921875 C-23.73956017 31.86560098 -21.24476939 31.8082535 -18.75 31.75 C-16.86861328 31.72873047 -16.86861328 31.72873047 -14.94921875 31.70703125 C-13.74394531 31.67480469 -12.53867187 31.64257812 -11.296875 31.609375 C-10.18666992 31.58842773 -9.07646484 31.56748047 -7.93261719 31.54589844 C-4.29159579 30.86813255 -3.11273803 30.02608321 -1 27 C-0.36085024 24.01312126 -0.36085024 24.01312126 -0.390625 20.703125 C-0.35839844 19.49785156 -0.32617188 18.29257813 -0.29296875 17.05078125 C-0.27878906 15.79652344 -0.26460938 14.54226562 -0.25 13.25 C-0.20552734 11.34541016 -0.20552734 11.34541016 -0.16015625 9.40234375 C-0.08946966 6.26857164 -0.04246994 3.1342815 0 0 Z " fill="#D94DAE" transform="translate(433,78)"/>
<path d="M0 0 C2.6796875 1.50390625 2.6796875 1.50390625 5 4 C5.37233017 6.96672677 5.4808246 9.31856241 5.3125 12.25 C5.28994141 12.99507813 5.26738281 13.74015625 5.24414062 14.5078125 C5.18543561 16.339409 5.09575757 18.16996653 5 20 C6.53720703 19.93039062 6.53720703 19.93039062 8.10546875 19.859375 C9.46611656 19.82183989 10.82679605 19.78544159 12.1875 19.75 C12.86103516 19.71648437 13.53457031 19.68296875 14.22851562 19.6484375 C17.87436737 19.57729893 19.82507623 19.88836641 22.92578125 21.8671875 C25.37308097 24.38361999 26 25.49544365 26 29 C23.72289157 34.63855422 23.72289157 34.63855422 21 36 C18.28239892 36.07181821 15.59140612 36.09299506 12.875 36.0625 C11.74384766 36.05573242 11.74384766 36.05573242 10.58984375 36.04882812 C8.72652873 36.03703499 6.86325445 36.01909942 5 36 C5.04640625 37.10859375 5.0928125 38.2171875 5.140625 39.359375 C5.17815102 40.82288968 5.21455029 42.28643356 5.25 43.75 C5.30027344 44.84441406 5.30027344 44.84441406 5.3515625 45.9609375 C5.41566933 49.48681335 5.30218013 51.57319569 3.23828125 54.48828125 C-0.42784829 56.96435827 -2.63926007 56.48452666 -7 56 C-9.67431489 54.18836733 -9.95920359 53.12238923 -11 50 C-11.06970052 47.60509014 -11.08448003 45.20832309 -11.0625 42.8125 C-11.05347656 41.54019531 -11.04445312 40.26789063 -11.03515625 38.95703125 C-11.02355469 37.98121094 -11.01195312 37.00539063 -11 36 C-12.02480469 36.05800781 -13.04960937 36.11601562 -14.10546875 36.17578125 C-15.46610011 36.22269957 -16.82678096 36.26819752 -18.1875 36.3125 C-19.19780273 36.3753418 -19.19780273 36.3753418 -20.22851562 36.43945312 C-24.13711601 36.53478484 -25.83533652 36.12495433 -28.98046875 33.73828125 C-31 31 -31 31 -31.4453125 28.8671875 C-31.33960937 28.20976562 -31.23390625 27.55234375 -31.125 26.875 C-31.04507813 26.21242188 -30.96515625 25.54984375 -30.8828125 24.8671875 C-29.52070837 21.98627699 -27.88800684 21.27009773 -25 20 C-21.44921875 19.70703125 -21.44921875 19.70703125 -17.6875 19.8125 C-15.80611328 19.85310547 -15.80611328 19.85310547 -13.88671875 19.89453125 C-12.93410156 19.92933594 -11.98148438 19.96414063 -11 20 C-11.03480469 19.04738281 -11.06960937 18.09476562 -11.10546875 17.11328125 C-11.13253906 15.85902344 -11.15960938 14.60476563 -11.1875 13.3125 C-11.22230469 12.07113281 -11.25710937 10.82976562 -11.29296875 9.55078125 C-10.98212299 5.78333068 -10.2772857 3.97205083 -8 1 C-5.14675563 -0.42662219 -3.16545451 -0.31033868 0 0 Z " fill="#000000" transform="translate(152,446)"/>
<path d="M0 0 C2.67431489 1.81163267 2.95920359 2.87761077 4 6 C4.06970052 8.39490986 4.08448003 10.79167691 4.0625 13.1875 C4.05347656 14.45980469 4.04445313 15.73210938 4.03515625 17.04296875 C4.02355469 18.01878906 4.01195312 18.99460937 4 20 C5.02480469 19.94199219 6.04960937 19.88398438 7.10546875 19.82421875 C8.46610011 19.77730043 9.82678096 19.73180248 11.1875 19.6875 C11.86103516 19.64560547 12.53457031 19.60371094 13.22851562 19.56054688 C17.13711601 19.46521516 18.83533652 19.87504567 21.98046875 22.26171875 C24 25 24 25 24.4453125 27.1328125 C24.33960938 27.79023437 24.23390625 28.44765625 24.125 29.125 C24.04507813 29.78757812 23.96515625 30.45015625 23.8828125 31.1328125 C22.52070837 34.01372301 20.88800684 34.72990227 18 36 C14.44921875 36.29296875 14.44921875 36.29296875 10.6875 36.1875 C9.43324219 36.16042969 8.17898438 36.13335937 6.88671875 36.10546875 C5.93410156 36.07066406 4.98148437 36.03585938 4 36 C4.05220703 37.42892578 4.05220703 37.42892578 4.10546875 38.88671875 C4.13253906 40.14097656 4.15960938 41.39523438 4.1875 42.6875 C4.23970703 44.54955078 4.23970703 44.54955078 4.29296875 46.44921875 C3.98212299 50.21666932 3.2772857 52.02794917 1 55 C-1.85324437 56.42662219 -3.83454549 56.31033868 -7 56 C-9.6796875 54.49609375 -9.6796875 54.49609375 -12 52 C-12.37233017 49.03327323 -12.4808246 46.68143759 -12.3125 43.75 C-12.28994141 43.00492188 -12.26738281 42.25984375 -12.24414062 41.4921875 C-12.18543561 39.660591 -12.09575757 37.83003347 -12 36 C-13.02480469 36.04640625 -14.04960937 36.0928125 -15.10546875 36.140625 C-16.46611656 36.17816011 -17.82679605 36.21455841 -19.1875 36.25 C-19.86103516 36.28351562 -20.53457031 36.31703125 -21.22851562 36.3515625 C-24.87436737 36.42270107 -26.82507623 36.11163359 -29.92578125 34.1328125 C-32.37308097 31.61638001 -33 30.50455635 -33 27 C-30.72289157 21.36144578 -30.72289157 21.36144578 -28 20 C-25.28239892 19.92818179 -22.59140612 19.90700494 -19.875 19.9375 C-19.12089844 19.94201172 -18.36679687 19.94652344 -17.58984375 19.95117188 C-15.72652873 19.96296501 -13.86325445 19.98090058 -12 20 C-12.04640625 18.89140625 -12.0928125 17.7828125 -12.140625 16.640625 C-12.17815102 15.17711032 -12.21455029 13.71356644 -12.25 12.25 C-12.28351563 11.52039062 -12.31703125 10.79078125 -12.3515625 10.0390625 C-12.41566933 6.51318665 -12.30218013 4.42680431 -10.23828125 1.51171875 C-6.57215171 -0.96435827 -4.36073993 -0.48452666 0 0 Z " fill="#000000" transform="translate(367,10)"/>
</svg>
