<?xml version="1.0" standalone="no"?>
<!DOCTYPE svg PUBLIC "-//W3C//DTD SVG 20010904//EN"
 "http://www.w3.org/TR/2001/REC-SVG-20010904/DTD/svg10.dtd">
<svg version="1.0" xmlns="http://www.w3.org/2000/svg"
 width="512.000000pt" height="512.000000pt" viewBox="0 0 512.000000 512.000000"
 preserveAspectRatio="xMidYMid meet">

<g transform="translate(0.000000,512.000000) scale(0.100000,-0.100000)"
fill="#000000" stroke="none">
<path d="M1225 5111 c-11 -5 -29 -19 -40 -31 -19 -21 -20 -38 -23 -321 l-3
-298 -269 -3 -270 -3 -27 -28 -28 -27 -3 -2100 -2 -2099 -171 -3 -171 -3 -29
-33 c-38 -42 -38 -82 0 -124 l29 -33 2336 -3 2336 -2 32 29 c27 24 33 36 33
71 0 35 -6 47 -33 71 l-32 29 -165 0 -165 0 -2 2101 -3 2101 -33 29 -32 29
-265 0 -264 0 -3 301 -3 301 -33 29 -32 29 -1323 -1 c-727 0 -1331 -4 -1342
-8z m2535 -421 l0 -230 -1200 0 -1200 0 0 230 0 230 1200 0 1200 0 0 -230z
m600 -2460 l0 -2030 -600 0 -600 0 -2 601 -3 601 -33 29 -33 30 -535 -3 -536
-3 -29 -33 -29 -32 0 -595 0 -595 -600 0 -600 0 0 2030 0 2030 1800 0 1800 0
0 -2030z m-1400 -1500 l0 -530 -149 0 -150 0 -3 201 -3 201 -34 30 c-28 25
-39 29 -70 24 -23 -3 -46 -17 -63 -36 l-28 -30 0 -195 0 -195 -150 0 -150 0 0
530 0 530 400 0 400 0 0 -530z"/>
<path d="M1025 3851 c-11 -5 -29 -19 -40 -31 -19 -21 -20 -36 -20 -361 l0
-339 28 -27 27 -28 335 -3 334 -3 33 30 33 29 0 342 0 342 -33 29 -32 29 -323
-1 c-177 0 -331 -4 -342 -8z m535 -391 l0 -200 -200 0 -200 0 0 200 0 200 200
0 200 0 0 -200z"/>
<path d="M2224 3850 c-12 -4 -31 -21 -43 -36 -20 -26 -21 -35 -21 -355 l0
-329 29 -32 29 -33 336 -3 335 -3 33 30 33 29 0 342 0 342 -33 29 -32 29 -323
-1 c-177 0 -332 -4 -343 -9z m536 -390 l0 -200 -200 0 -200 0 0 200 0 200 200
0 200 0 0 -200z"/>
<path d="M3424 3850 c-12 -4 -31 -21 -43 -36 -20 -26 -21 -35 -21 -355 l0
-329 29 -32 29 -33 336 -3 335 -3 33 30 33 29 0 342 0 342 -33 29 -32 29 -323
-1 c-177 0 -332 -4 -343 -9z m536 -390 l0 -200 -200 0 -200 0 0 200 0 200 200
0 200 0 0 -200z"/>
<path d="M1025 2651 c-11 -5 -29 -19 -40 -31 -19 -21 -20 -36 -20 -361 l0
-339 28 -27 27 -28 335 -3 334 -3 33 30 33 29 0 342 0 342 -33 29 -32 29 -323
-1 c-177 0 -331 -4 -342 -8z m535 -391 l0 -200 -200 0 -200 0 0 200 0 200 200
0 200 0 0 -200z"/>
<path d="M2224 2650 c-12 -4 -31 -21 -43 -36 -20 -26 -21 -35 -21 -355 l0
-329 29 -32 29 -33 336 -3 335 -3 33 30 33 29 0 342 0 342 -33 29 -32 29 -323
-1 c-177 0 -332 -4 -343 -9z m536 -390 l0 -200 -200 0 -200 0 0 200 0 200 200
0 200 0 0 -200z"/>
<path d="M3424 2650 c-12 -4 -31 -21 -43 -36 -20 -26 -21 -35 -21 -355 l0
-329 29 -32 29 -33 336 -3 335 -3 33 30 33 29 0 342 0 342 -33 29 -32 29 -323
-1 c-177 0 -332 -4 -343 -9z m536 -390 l0 -200 -200 0 -200 0 0 200 0 200 200
0 200 0 0 -200z"/>
<path d="M1025 1451 c-11 -5 -29 -19 -40 -31 -19 -21 -20 -36 -20 -361 l0
-339 28 -27 27 -28 335 -3 334 -3 33 30 33 29 0 342 0 342 -33 29 -32 29 -323
-1 c-177 0 -331 -4 -342 -8z m535 -391 l0 -200 -200 0 -200 0 0 200 0 200 200
0 200 0 0 -200z"/>
<path d="M3424 1450 c-12 -4 -31 -21 -43 -36 -20 -26 -21 -35 -21 -355 l0
-329 29 -32 29 -33 336 -3 335 -3 33 30 33 29 0 342 0 342 -33 29 -32 29 -323
-1 c-177 0 -332 -4 -343 -9z m536 -390 l0 -200 -200 0 -200 0 0 200 0 200 200
0 200 0 0 -200z"/>
<path d="M2524 1050 c-32 -13 -64 -59 -64 -91 0 -40 46 -88 91 -95 31 -5 42
-1 70 24 28 25 34 37 34 72 0 35 -6 47 -33 71 -33 29 -60 35 -98 19z"/>
</g>
</svg>
